<?xml version="1.0" standalone="no"?>
<!DOCTYPE svg PUBLIC "-//W3C//DTD SVG 20010904//EN"
 "http://www.w3.org/TR/2001/REC-SVG-20010904/DTD/svg10.dtd">
<svg version="1.0" xmlns="http://www.w3.org/2000/svg"
 width="360.000000pt" height="360.000000pt" viewBox="0 0 360.000000 360.000000"
 preserveAspectRatio="xMidYMid meet">

<g transform="translate(0.000000,360.000000) scale(0.100000,-0.100000)"
fill="#000000" stroke="none">
<path d="M0 3515 c0 -63 3 -84 13 -82 6 1 11 -4 9 -10 -1 -7 3 -13 10 -13 6 0
8 -3 5 -6 -4 -4 -13 -1 -22 6 -13 11 -15 -18 -15 -268 0 -243 2 -282 15 -290
10 -5 13 -15 9 -25 -3 -9 -10 -14 -15 -11 -6 3 -9 -220 -9 -554 l1 -560 25 -6
c27 -7 23 -28 -4 -24 -15 3 -17 -10 -20 -91 -2 -60 1 -98 9 -107 9 -11 9 -14
0 -14 -8 0 -11 -29 -10 -95 2 -92 3 -95 25 -95 17 0 22 5 19 19 -3 17 -1 18
26 4 39 -19 44 -31 11 -26 -20 3 -23 2 -13 -6 11 -7 3 -8 -27 -4 l-42 6 2 -69
c1 -50 6 -72 20 -86 21 -21 35 -23 41 -5 7 19 16 4 19 -30 1 -18 5 -30 9 -28
9 6 59 -38 59 -53 0 -7 5 -12 11 -12 8 0 8 -4 0 -14 -11 -13 -17 -12 -47 6
-19 11 -33 23 -30 26 3 3 12 -1 20 -7 8 -7 20 -10 26 -6 19 11 10 22 -18 22
-15 0 -37 7 -47 16 -11 10 -24 18 -30 18 -5 0 -15 5 -21 10 -17 14 -19 -128
-2 -149 10 -12 10 -14 1 -8 -20 11 -16 -24 4 -48 13 -15 14 -17 2 -9 -14 11
-16 2 -18 -80 -2 -84 0 -93 19 -105 12 -7 29 -10 39 -7 19 6 23 -18 7 -44 -6
-9 -5 -12 5 -9 8 3 13 12 13 21 -1 9 4 13 11 11 7 -3 11 -14 8 -24 -3 -12 3
-22 17 -30 12 -7 20 -8 17 -2 -4 5 1 18 9 28 9 10 13 13 9 7 -3 -7 -1 -13 6
-13 7 0 9 -8 6 -21 -3 -13 -1 -19 6 -16 7 3 11 9 10 14 -1 6 9 8 22 5 14 -2
22 -8 19 -13 -3 -5 -10 -7 -15 -4 -5 4 -9 1 -9 -4 0 -6 4 -11 9 -11 10 0 7
-71 -3 -89 -9 -13 -1 -14 22 -2 20 10 62 -3 62 -21 0 -9 -3 -9 -12 0 -8 8 -15
9 -25 0 -11 -9 -11 -14 3 -29 16 -18 16 -19 0 -19 -9 0 -19 7 -22 15 -5 12
-11 10 -29 -11 -15 -18 -25 -22 -30 -15 -4 7 3 21 16 32 22 19 22 19 1 19 -11
0 -23 4 -27 9 -3 6 -14 8 -25 6 -11 -2 -20 1 -20 7 0 6 -8 4 -18 -5 -18 -17
-66 -17 -81 -1 -5 5 -11 18 -14 29 -3 11 -5 1 -6 -23 0 -24 3 -41 8 -37 5 3
12 1 15 -4 3 -5 -1 -11 -9 -15 -13 -4 -15 -36 -15 -196 l0 -191 328 2 c323 1
328 1 329 21 3 34 21 45 38 22 15 -19 15 -19 8 1 -6 17 -5 18 9 5 13 -12 13
-17 1 -28 -21 -21 -16 -23 38 -19 30 2 54 9 60 18 7 12 9 11 9 -3 0 -14 13
-16 97 -15 72 2 97 5 101 16 3 8 1 11 -4 8 -5 -3 -10 10 -11 28 -1 25 2 33 12
29 7 -3 12 -14 10 -25 -2 -11 0 -17 5 -14 12 7 9 55 -3 55 -4 0 -5 5 -2 10 5
8 12 7 23 -2 15 -12 16 -11 3 5 -17 21 -14 24 24 31 37 6 75 -18 57 -36 -9 -9
-12 -9 -12 3 0 19 -27 21 -34 3 -3 -9 1 -11 11 -7 13 5 15 2 10 -11 -4 -9 -3
-15 1 -13 10 7 73 -29 65 -37 -11 -11 -35 -7 -27 6 5 8 2 9 -9 5 -10 -4 -17
-1 -17 5 0 6 -3 8 -7 5 -3 -4 -13 -1 -22 6 -14 10 -14 10 -5 -3 6 -8 14 -28
18 -43 7 -28 32 -34 48 -12 5 7 14 6 28 -3 29 -18 48 -15 22 4 -16 11 -21 22
-17 35 4 11 2 19 -4 19 -24 0 -9 32 19 43 20 8 29 17 25 27 -3 9 1 7 10 -4 18
-23 19 -36 4 -36 -8 0 -8 -5 1 -15 9 -11 9 -19 2 -28 -7 -8 -7 -18 -2 -27 5
-8 6 -18 4 -22 -3 -4 2 -8 10 -8 17 0 22 21 9 34 -14 14 -10 57 4 52 18 -7 16
9 -4 42 l-17 27 29 -25 28 -25 -19 27 c-14 20 -28 27 -52 28 -18 0 -31 -4 -28
-8 2 -4 -4 -9 -15 -9 -17 -2 -17 0 -5 13 11 10 41 14 117 14 104 0 132 -7 47
-11 -50 -3 -57 -19 -8 -19 16 0 31 -4 35 -10 3 -5 13 -6 22 -3 13 5 15 2 10
-12 -4 -9 -2 -24 4 -31 7 -8 7 -14 2 -14 -6 0 -9 -11 -7 -26 2 -21 0 -23 -12
-13 -11 9 -17 9 -29 -1 -13 -10 -19 -10 -35 5 -11 10 -20 15 -20 12 0 -3 10
-15 22 -26 17 -17 34 -21 86 -20 56 1 63 3 59 19 -4 17 -2 18 32 11 2 -1 -2
-8 -9 -16 -10 -13 -9 -15 9 -15 12 0 19 5 16 10 -3 6 -2 10 4 10 5 0 13 -5 17
-11 4 -8 9 -7 15 2 6 11 11 11 21 1 19 -19 68 -15 68 6 1 16 1 16 14 0 7 -10
26 -18 42 -18 l29 0 -30 28 c-16 15 -38 31 -47 35 -10 3 -18 12 -18 19 0 6 -9
2 -21 -11 -24 -26 -67 -44 -86 -37 -17 7 -14 63 4 78 8 6 18 7 26 1 6 -5 41
-8 77 -8 49 0 67 -4 71 -15 3 -8 0 -20 -8 -25 -12 -9 -9 -15 15 -36 28 -26 31
-26 198 -28 116 -1 164 2 154 9 -9 6 -10 10 -3 10 6 0 15 -4 18 -10 4 -7 268
-10 761 -10 l754 0 0 1320 0 1319 -28 28 c-25 26 -26 28 -7 31 26 5 35 20 35
58 0 25 -10 40 -55 79 -42 36 -53 51 -45 61 9 10 6 11 -9 7 -15 -4 -35 6 -64
30 -61 50 -217 147 -317 197 -47 23 -87 44 -90 47 -2 2 1 13 8 23 12 20 6 25
-20 21 -5 0 -8 4 -8 10 0 5 -4 7 -10 4 -6 -3 -7 1 -4 9 3 9 10 16 15 16 5 0 9
5 9 10 0 16 -30 12 -36 -5 -4 -9 -15 -13 -30 -11 -13 3 -24 0 -24 -6 0 -5 -6
-8 -12 -5 -48 19 -51 20 -44 9 10 -16 8 -16 -92 14 -70 21 -88 30 -88 45 0 17
9 19 68 20 296 2 721 -4 673 -11 -27 -4 -42 -8 -32 -8 9 -1 17 -7 17 -13 0 -7
11 -9 28 -5 15 3 21 3 15 0 -19 -8 -16 -24 3 -17 13 5 15 2 10 -15 -4 -11 -2
-23 3 -27 6 -3 9 0 6 7 -6 14 33 43 43 33 4 -3 0 -10 -8 -15 -11 -7 -8 -11 13
-21 15 -7 27 -18 27 -25 0 -7 10 -16 21 -19 17 -6 19 -9 8 -17 -12 -8 -11 -9
1 -5 13 3 15 37 18 215 l2 211 -355 1 c-245 0 -355 -3 -355 -11 0 -5 6 -7 13
-3 9 6 9 4 -1 -8 -11 -13 -9 -16 13 -21 19 -3 25 -1 21 9 -3 8 0 11 9 7 8 -3
13 -9 10 -13 -3 -5 -1 -11 5 -15 5 -3 10 -11 10 -16 0 -6 -5 -7 -12 -3 -6 4
-8 3 -5 -3 3 -5 20 -9 36 -8 36 2 75 -34 76 -68 0 -15 6 -22 18 -21 10 1 16
-3 14 -10 -2 -6 -13 -10 -23 -9 -10 1 -13 0 -6 -3 6 -3 12 -15 12 -26 0 -14 5
-18 16 -14 9 3 17 6 18 6 2 0 1 12 -1 28 -4 27 -4 27 9 4 11 -18 16 -20 26
-10 10 10 15 10 21 -1 5 -7 14 -10 20 -6 7 4 18 1 26 -5 12 -10 16 -9 21 4 4
11 11 13 23 6 12 -6 22 -5 29 2 9 9 16 6 30 -9 10 -12 34 -23 52 -26 19 -2
-194 -5 -473 -5 -403 -2 -508 1 -504 11 6 17 -12 49 -24 42 -5 -4 -9 -1 -9 6
0 8 -10 9 -32 5 -25 -5 -30 -4 -21 5 10 10 8 15 -4 25 -14 9 -22 9 -40 -3 -23
-15 -24 -22 -5 -73 5 -12 2 -11 -11 2 -9 9 -17 21 -17 26 0 11 -36 22 -45 14
-3 -3 -18 -8 -33 -10 -34 -4 -38 -8 -24 -25 15 -18 5 -27 -27 -27 -18 0 -22 3
-13 9 10 6 6 14 -18 33 l-32 25 26 7 c14 3 26 10 26 15 0 12 -19 9 -48 -8 -15
-8 -28 -9 -35 -3 -7 5 -21 12 -31 16 -16 5 -17 4 -6 -9 8 -9 8 -15 2 -15 -6 0
-14 5 -17 10 -13 21 -25 9 -24 -22 1 -18 3 -25 6 -15 6 24 48 23 50 -2 2 -23
-51 -35 -82 -18 -11 6 -23 10 -27 9 -5 -1 -8 5 -8 13 0 8 -4 15 -10 15 -5 0
-10 -4 -10 -10 0 -5 -7 -7 -16 -3 -12 4 -14 0 -8 -21 l6 -26 -333 1 c-184 0
-328 3 -322 6 9 3 10 10 3 23 -7 13 -5 21 5 30 8 7 15 9 15 5 0 -4 7 -2 15 5
8 7 15 9 15 5 0 -4 7 -2 15 5 8 7 15 9 15 6 0 -4 10 0 22 8 27 19 56 21 54 4
-2 -21 19 -23 22 -3 4 19 -16 37 -33 31 -6 -2 -11 5 -11 15 0 14 5 18 21 14
17 -5 18 -4 3 4 -18 12 -14 47 8 55 16 6 19 -5 4 -20 -7 -7 -2 -19 17 -38 25
-26 28 -26 40 -10 7 10 13 22 13 27 0 5 6 4 14 -2 7 -6 22 -8 31 -4 17 6 17 5
-1 -14 -12 -12 -23 -17 -30 -11 -8 5 -13 2 -17 -11 -4 -15 0 -18 19 -16 30 3
31 -16 2 -34 -26 -16 -32 -16 -34 2 -2 29 -6 31 -15 9 -5 -14 -5 -31 0 -40 4
-9 6 -23 4 -29 -3 -7 0 -13 6 -13 10 0 24 17 27 33 1 4 2 10 3 13 0 3 8 -2 17
-11 13 -12 19 -13 24 -4 4 6 12 9 18 5 6 -3 16 0 24 7 7 8 23 19 35 26 13 6
26 25 31 42 7 28 9 30 21 15 9 -10 10 -16 2 -16 -6 0 -11 -5 -11 -12 0 -9 3
-9 13 0 6 7 12 18 12 25 0 7 10 13 23 15 12 2 22 7 22 12 0 5 -13 7 -30 4 -24
-5 -30 -3 -30 10 0 10 3 15 8 13 4 -3 19 8 34 23 37 38 32 39 -179 38 -152 -1
-173 -3 -173 -17 -1 -14 -2 -14 -14 1 -12 16 -49 17 -449 18 -435 0 -437 0
-459 -22 l-22 -22 -14 22 c-14 21 -21 22 -173 22 l-159 0 0 -85z m1644 60 c-4
-8 -8 -15 -10 -15 -2 0 -4 7 -4 15 0 8 4 15 10 15 5 0 7 -7 4 -15z m1796 -15
c0 -5 -4 -10 -10 -10 -5 0 -10 5 -10 10 0 6 5 10 10 10 6 0 10 -4 10 -10z
m-380 -10 c0 -5 -2 -10 -4 -10 -3 0 -8 5 -11 10 -3 6 -1 10 4 10 6 0 11 -4 11
-10z m-1600 -14 c0 -3 -4 -8 -10 -11 -5 -3 -10 -1 -10 4 0 6 5 11 10 11 6 0
10 -2 10 -4z m1945 -6 c3 -5 1 -10 -4 -10 -6 0 -11 -8 -11 -17 -1 -17 -1 -17
-14 -1 -7 10 -16 15 -19 11 -4 -3 -7 1 -7 10 0 19 44 24 55 7z m-324 -25 c5 3
6 -1 3 -10 -6 -15 -26 -17 -25 -2 1 4 2 15 2 25 1 16 2 16 6 -1 2 -9 9 -15 14
-12z m-1961 -5 c0 -5 -5 -10 -11 -10 -5 0 -7 5 -4 10 3 6 8 10 11 10 2 0 4 -4
4 -10z m2320 0 c0 -5 -5 -10 -11 -10 -5 0 -7 5 -4 10 3 6 8 10 11 10 2 0 4 -4
4 -10z m-3395 -30 c3 -5 2 -10 -4 -10 -5 0 -13 5 -16 10 -3 6 -2 10 4 10 5 0
13 -4 16 -10z m3395 0 c0 -5 -5 -10 -11 -10 -5 0 -7 5 -4 10 3 6 8 10 11 10 2
0 4 -4 4 -10z m-300 -25 c-7 -9 -15 -13 -19 -10 -3 3 1 10 9 15 21 14 24 12
10 -5z m113 -26 c-8 -8 -13 -7 -18 2 -5 8 -4 10 3 5 7 -4 12 -2 12 5 0 7 3 9
7 6 4 -4 2 -12 -4 -18z m-913 -18 c0 -5 -7 -12 -16 -15 -14 -5 -15 -4 -4 9 14
17 20 19 20 6z m-114 -26 c19 -14 19 -14 -1 -16 -21 -2 -55 -2 -67 0 -5 0 -8
6 -8 12 0 6 9 8 20 4 11 -4 20 -2 20 4 0 15 13 14 36 -4z m-1080 -10 c14 -13
12 -15 -16 -15 -26 0 -29 2 -18 15 16 18 16 18 34 0z m2312 -12 c-10 -2 -26
-2 -35 0 -10 3 -2 5 17 5 19 0 27 -2 18 -5z m-2054 -35 c5 -10 7 -10 12 0 4 8
38 12 120 12 l114 0 -12 -25 c-6 -14 -16 -25 -23 -25 -6 0 -22 -10 -35 -22
-21 -19 -21 -23 -7 -32 13 -8 2 -19 -59 -58 -41 -26 -77 -48 -79 -48 -3 0 4
15 15 33 23 38 25 51 6 44 -10 -4 -13 2 -12 25 2 28 1 29 -11 12 -8 -11 -18
-19 -23 -19 -4 0 -12 -4 -17 -9 -5 -5 -2 -6 6 -1 11 6 13 3 7 -16 -4 -13 -8
-31 -11 -39 -2 -8 -8 -27 -14 -42 -6 -16 -7 -28 -3 -28 4 -1 -3 -9 -16 -19
-31 -27 -54 -20 -74 20 -10 19 -18 27 -19 19 -1 -8 -2 -24 -3 -35 0 -12 -9
-21 -22 -23 -21 -3 -24 4 -25 53 0 16 -2 17 -9 5 -5 -8 -7 -23 -4 -32 7 -22
-12 -23 -32 -3 -24 24 -37 18 -30 -12 5 -21 4 -24 -4 -13 -7 11 -10 12 -10 2
0 -7 7 -21 16 -29 12 -12 13 -18 3 -24 -9 -5 -8 -11 4 -24 20 -20 21 -26 5
-22 -7 1 -19 14 -27 30 l-14 27 -23 -32 c-13 -17 -24 -25 -24 -17 0 11 -2 11
-8 2 -14 -21 -42 8 -45 44 -2 34 -11 43 -20 21 -3 -7 -6 -2 -6 11 -1 13 -4 21
-8 18 -3 -4 -12 2 -20 13 -8 11 -21 20 -29 20 -9 0 -14 11 -14 31 0 28 2 30
17 18 15 -12 16 -12 8 1 -8 13 -5 13 15 -1 14 -9 38 -19 53 -23 19 -4 27 -12
24 -21 -3 -7 0 -16 8 -18 19 -8 25 28 8 52 -8 12 -10 21 -5 21 6 0 12 -7 16
-15 3 -8 11 -15 18 -15 10 0 10 2 1 8 -7 4 -10 16 -9 27 2 11 0 25 -4 30 -4 6
-12 24 -18 42 -8 25 -8 33 4 37 7 3 13 0 11 -6 -1 -6 4 -13 12 -16 10 -3 13 2
9 22 -7 33 5 41 27 20 20 -20 33 -10 14 12 -34 41 -25 44 126 44 105 0 145 -3
149 -12z m391 0 c-62 -14 -105 -18 -105 -9 0 17 16 21 79 20 64 -1 65 -2 26
-11z m108 5 c-7 -2 -19 -2 -25 0 -7 3 -2 5 12 5 14 0 19 -2 13 -5z m267 -10
c0 -12 -3 -14 -8 -7 -4 7 -16 14 -27 17 -15 4 -14 5 8 6 20 1 27 -4 27 -16z
m112 9 c14 -6 9 -11 -22 -28 -38 -21 -39 -21 -45 -3 -4 11 -11 17 -16 14 -5
-4 -9 1 -9 9 0 12 10 16 38 15 20 0 45 -3 54 -7z m388 -7 c0 -18 -20 -18 -85
0 l-50 14 68 0 c53 1 67 -2 67 -14z m-2094 -32 c-2 -2 -11 0 -20 3 -14 5 -15
9 -5 15 12 7 34 -10 25 -18z m2044 -3 c14 -4 19 -8 13 -9 -7 -1 -13 -8 -13
-16 0 -18 -19 -19 -42 -1 -39 29 -14 44 42 26z m-184 -25 c13 -27 9 -35 -18
-35 -10 0 -18 -5 -18 -11 0 -6 -7 -4 -15 5 -8 8 -15 18 -15 22 0 3 7 1 15 -6
13 -10 15 -9 15 12 0 43 19 50 36 13z m297 -1 c41 -7 48 -19 17 -29 -28 -9
-25 -19 8 -32 24 -9 21 -10 -26 -8 -45 2 -52 0 -47 -14 16 -38 15 -44 -2 -22
-10 13 -28 33 -40 46 -28 28 -29 39 -3 32 13 -3 20 0 20 10 0 8 -4 11 -10 8
-5 -3 -10 -2 -10 3 0 16 14 23 35 18 11 -3 37 -9 58 -12z m847 12 c0 -3 -4 -8
-10 -11 -5 -3 -10 -1 -10 4 0 6 5 11 10 11 6 0 10 -2 10 -4z m-1468 -19 c7 -7
23 -12 36 -11 12 1 22 -4 22 -11 0 -17 -36 -25 -51 -11 -9 8 -10 8 -5 -1 3 -6
2 -15 -4 -18 -8 -5 -7 -12 2 -23 9 -12 6 -11 -10 2 -12 11 -25 16 -29 12 -4
-4 -1 -12 7 -17 11 -8 12 -12 3 -15 -9 -4 -9 -13 -1 -36 9 -26 8 -33 -7 -45
-11 -7 -24 -13 -29 -12 -6 0 -6 3 1 5 7 3 9 12 6 21 -3 8 0 19 8 23 7 5 10 12
6 16 -3 4 -13 2 -20 -4 -8 -7 -16 -9 -19 -7 -3 3 -3 -6 -1 -20 5 -21 2 -25
-20 -25 -14 0 -27 6 -30 13 -3 9 -8 9 -18 -2 -9 -8 -9 -11 -2 -7 9 5 11 2 7
-8 -3 -8 -12 -12 -20 -9 -11 4 -12 9 -4 18 8 10 7 19 -6 34 -18 20 -29 61 -18
61 4 0 13 -8 21 -17 13 -16 13 -16 4 4 -15 29 -14 36 3 30 8 -3 17 1 20 9 4
12 14 14 36 9 24 -5 37 -1 60 18 16 14 26 28 23 31 -12 12 16 6 29 -7z m-58
-12 c-4 -8 -7 -15 -9 -15 -2 0 -5 7 -9 15 -3 9 0 15 9 15 9 0 12 -6 9 -15z
m166 -7 c0 -13 -23 -5 -28 10 -2 7 2 10 12 6 9 -3 16 -11 16 -16z m744 -17 c4
-5 -3 -7 -14 -4 -23 6 -26 13 -6 13 8 0 17 -4 20 -9z m-1184 -11 c0 -5 -4 -10
-10 -10 -5 0 -10 5 -10 10 0 6 5 10 10 10 6 0 10 -4 10 -10z m688 -8 c2 -7 -3
-12 -12 -12 -9 0 -16 7 -16 16 0 17 22 14 28 -4z m36 3 c-4 -8 -10 -12 -15 -9
-14 8 -10 24 6 24 9 0 12 -6 9 -15z m91 -19 c0 -18 -3 -22 -11 -15 -7 5 -10
19 -7 30 7 25 16 17 18 -15z m-1575 14 c0 -5 -4 -10 -10 -10 -5 0 -10 5 -10
10 0 6 5 10 10 10 6 0 10 -4 10 -10z m1259 -14 c9 -11 9 -15 -1 -20 -7 -3 -3
-4 10 -2 19 4 21 2 11 -10 -6 -8 -14 -12 -16 -10 -3 3 -15 1 -27 -4 -13 -4
-29 -4 -37 1 -10 6 -16 3 -21 -9 -4 -11 -7 -6 -7 17 -1 33 -1 33 24 17 33 -22
50 -20 52 5 1 15 -3 19 -13 15 -9 -3 -12 -1 -9 4 9 14 21 12 34 -4z m592 -23
c30 -5 35 -11 20 -26 -11 -9 -14 -9 -18 1 -3 8 -17 11 -41 8 -21 -3 -29 -3
-19 0 9 3 17 15 17 27 0 17 2 19 9 8 5 -8 20 -16 32 -18z m197 -28 c110 -53
325 -187 351 -219 12 -14 11 -16 -4 -10 -13 5 -16 2 -14 -11 2 -10 10 -20 18
-23 8 -3 11 0 7 7 -19 30 34 5 96 -46 l70 -57 -27 -14 c-15 -8 -30 -10 -34 -5
-10 14 -64 15 -72 1 -6 -10 -15 -10 -39 -1 -17 6 -32 7 -36 2 -13 -22 -22 -6
-12 22 8 22 7 33 -1 40 -6 5 -9 6 -6 3 9 -13 -17 -34 -41 -34 -14 0 -25 8 -29
19 -3 11 -15 23 -26 26 -33 11 -59 41 -46 54 14 14 2 14 -24 0 -17 -9 -19 -7
-17 13 2 13 8 30 13 38 7 12 6 13 -6 3 -12 -10 -20 -9 -37 3 -12 8 -22 21 -22
28 0 8 -6 16 -14 19 -9 4 -13 14 -9 29 4 17 2 20 -5 9 -9 -12 -13 -13 -26 -1
-14 11 -16 10 -10 -3 4 -11 0 -15 -12 -13 -10 2 -20 8 -22 14 -2 7 -12 12 -23
12 -11 0 -22 6 -25 13 -2 7 -14 13 -25 14 -26 2 -39 14 -21 20 6 3 10 8 7 13
-3 4 3 14 12 21 15 12 16 12 9 -6 -5 -15 -4 -17 5 -8 6 6 18 9 25 6 10 -4 12
0 8 11 -3 9 -9 14 -13 12 -13 -8 -71 23 -71 39 0 25 30 17 148 -40z m-644 30
c3 -8 3 -15 0 -15 -3 0 -12 7 -20 15 -13 13 -13 15 -1 15 8 0 17 -7 21 -15z
m-292 -17 c-7 -7 -12 -8 -12 -2 0 14 12 26 19 19 2 -3 -1 -11 -7 -17z m446 -3
c-3 -3 -9 2 -12 12 -6 14 -5 15 5 6 7 -7 10 -15 7 -18z m185 11 c17 -13 16
-14 -6 -12 -13 0 -24 7 -24 14 0 15 7 15 30 -2z m-1233 -4 c0 -5 -11 -14 -24
-20 -18 -8 -22 -16 -19 -36 4 -17 0 -28 -10 -32 -9 -3 -13 -12 -10 -20 3 -8
-1 -14 -11 -14 -9 0 -13 6 -10 14 4 11 0 13 -14 9 -43 -11 -29 18 30 61 70 50
68 49 68 38z m637 -24 c-3 -8 -6 -5 -6 6 -1 11 2 17 5 13 3 -3 4 -12 1 -19z
m233 -20 c-1 -28 -2 -30 -11 -15 -7 13 -17 16 -32 11 -20 -6 -20 -6 -4 10 9
10 22 14 28 10 8 -4 9 -3 5 4 -4 7 -2 12 3 12 6 0 11 -15 11 -32z m150 17 c0
-8 -4 -15 -10 -15 -5 0 -7 7 -4 15 4 8 8 15 10 15 2 0 4 -7 4 -15z m-1130 -4
c0 -6 -4 -13 -10 -16 -5 -3 -10 1 -10 9 0 9 5 16 10 16 6 0 10 -4 10 -9z
m-880 -11 c0 -5 -4 -10 -10 -10 -5 0 -10 5 -10 10 0 6 5 10 10 10 6 0 10 -4
10 -10z m1708 -20 c12 -12 22 -25 22 -30 0 -4 3 -16 6 -24 4 -12 2 -15 -9 -10
-8 3 -13 13 -10 24 3 10 -1 21 -8 26 -9 5 -11 2 -6 -8 3 -10 -1 -18 -11 -20
-13 -4 -17 2 -18 29 -1 38 4 40 34 13z m292 0 c0 -5 -2 -10 -4 -10 -3 0 -8 5
-11 10 -3 6 -1 10 4 10 6 0 11 -4 11 -10z m204 -5 c-13 -10 -14 -13 -3 -10 9
3 22 -1 29 -10 15 -18 11 -19 -24 -5 -28 10 -26 40 2 40 13 0 12 -3 -4 -15z
m-1109 -4 c3 -5 0 -13 -6 -17 -7 -4 -9 -3 -5 4 3 5 0 13 -6 15 -9 4 -10 6 -1
6 6 1 14 -3 18 -8z m535 -23 c0 -23 -3 -29 -9 -19 -8 12 -4 51 5 51 2 0 4 -15
4 -32z m200 22 c0 -5 -4 -10 -10 -10 -5 0 -10 5 -10 10 0 6 5 10 10 10 6 0 10
-4 10 -10z m530 -33 c0 -18 36 -38 56 -30 6 2 30 -6 53 -18 31 -16 39 -24 29
-30 -8 -5 -17 -3 -24 6 -6 8 -16 15 -23 15 -6 0 -11 5 -11 10 0 6 -7 10 -15
10 -25 0 -17 -14 18 -30 19 -9 31 -22 31 -32 -1 -10 4 -14 12 -11 8 3 11 10 8
15 -4 6 2 6 14 -1 15 -8 21 -7 25 3 6 15 57 10 57 -6 0 -6 -11 -8 -25 -6 -14
3 -25 1 -25 -3 0 -5 -10 -9 -22 -9 -13 0 -33 -1 -46 -1 -12 0 -21 -3 -18 -7 2
-4 0 -16 -5 -27 -6 -17 -8 -17 -8 -2 -1 10 -9 17 -20 17 -11 0 -23 5 -27 11
-3 6 -14 9 -24 6 -23 -6 -46 29 -24 37 9 3 20 4 25 0 5 -3 9 0 9 6 0 7 7 10
15 6 8 -3 15 -2 15 3 0 15 -13 21 -26 10 -10 -8 -22 -7 -45 5 -40 20 -43 20
-35 0 4 -9 2 -13 -5 -8 -8 4 -9 -1 -5 -17 6 -21 5 -21 -4 -6 -6 9 -15 15 -19
12 -14 -8 -72 16 -65 27 4 6 9 7 13 1 3 -6 16 -12 29 -15 27 -7 59 19 43 35
-14 14 -14 30 -1 22 6 -3 10 0 10 7 0 7 10 18 23 23 24 12 37 2 37 -28z m-90
29 c0 -3 -4 -8 -10 -11 -5 -3 -10 -1 -10 4 0 6 5 11 10 11 6 0 10 -2 10 -4z
m-591 -42 c5 3 11 -3 14 -14 4 -16 2 -18 -13 -10 -16 9 -19 6 -23 -22 -2 -18
-4 -6 -5 27 -1 46 1 55 9 37 5 -13 13 -21 18 -18z m194 18 c4 8 6 7 6 -4 1
-25 -16 -22 -29 5 -10 20 -10 21 3 4 11 -14 16 -15 20 -5z m37 7 c0 -7 10 -9
24 -5 14 3 28 1 31 -5 4 -6 14 -8 22 -4 13 4 14 3 3 -10 -9 -11 -9 -15 -1 -15
7 0 9 -4 6 -10 -3 -5 -1 -18 5 -29 7 -13 7 -22 0 -26 -5 -3 -10 0 -10 8 0 8
-7 31 -16 52 -11 26 -19 34 -26 27 -6 -6 -17 -8 -26 -5 -9 4 -13 2 -9 -4 3 -5
0 -10 -7 -10 -8 0 -13 11 -13 24 0 13 3 23 8 23 5 0 9 -5 9 -11z m-715 -9 c3
-5 2 -10 -4 -10 -5 0 -13 5 -16 10 -3 6 -2 10 4 10 5 0 13 -4 16 -10z m405 0
c0 -5 -7 -10 -16 -10 -8 0 -12 5 -9 10 3 6 10 10 16 10 5 0 9 -4 9 -10z m-950
-10 c0 -5 -4 -10 -10 -10 -5 0 -10 5 -10 10 0 6 5 10 10 10 6 0 10 -4 10 -10z
m1125 -8 c-3 -3 -11 0 -18 7 -9 10 -8 11 6 5 10 -3 15 -9 12 -12z m488 4 c3
-8 -2 -16 -14 -19 -11 -3 -19 0 -19 7 0 26 24 35 33 12z m167 4 c0 -5 -5 -10
-11 -10 -5 0 -7 5 -4 10 3 6 8 10 11 10 2 0 4 -4 4 -10z m-2192 -40 c3 -21 2
-22 -12 -11 -19 16 -21 44 -3 39 6 -3 14 -15 15 -28z m100 15 c3 -3 1 -10 -6
-17 -8 -8 -15 -8 -27 2 -8 7 -15 16 -15 21 0 8 39 4 48 -6z m1225 1 c5 -12 13
-13 36 -6 31 9 31 8 30 -28 -1 -23 -3 -29 -6 -14 -4 19 -6 20 -19 7 -8 -8 -22
-12 -32 -9 -14 5 -13 2 3 -11 20 -17 19 -17 -7 -11 -19 4 -28 2 -28 -6 0 -8
-3 -9 -8 -3 -4 6 -18 16 -32 22 l-25 12 23 0 c13 1 20 5 17 11 -4 6 -11 7 -17
4 -7 -5 -8 -2 -4 5 5 7 14 10 22 7 8 -3 13 -2 13 2 -5 32 23 46 34 18z m-1428
-6 c-3 -5 -12 -10 -18 -10 -7 0 -6 4 3 10 19 12 23 12 15 0z m962 3 c-4 -3 -1
-13 6 -22 11 -14 10 -14 -5 -2 -16 12 -16 31 -1 31 4 0 3 -3 0 -7z m70 -10
c-14 -14 -19 -15 -29 -4 -11 10 -10 11 5 6 10 -4 17 -2 17 4 0 6 5 11 12 11 8
0 6 -6 -5 -17z m888 -3 c3 -5 1 -10 -4 -10 -6 0 -11 5 -11 10 0 6 2 10 4 10 3
0 8 -4 11 -10z m-370 -10 c3 -5 1 -10 -4 -10 -6 0 -11 5 -11 10 0 6 2 10 4 10
3 0 8 -4 11 -10z m-1378 -15 c-10 -25 13 -28 34 -4 19 22 19 21 18 -147 -1
-119 -4 -154 -9 -118 -9 60 -16 74 -36 74 -10 0 -12 -5 -7 -12 8 -13 9 -18 12
-39 0 -5 5 -7 11 -4 6 4 6 -3 0 -21 -7 -19 -7 -30 1 -40 14 -17 -2 -19 -18 -3
-9 9 -19 9 -42 -1 -34 -14 -66 -7 -55 11 4 7 3 9 -3 6 -5 -4 -19 1 -29 11 -10
10 -29 17 -42 16 -18 -1 -24 5 -29 28 -3 15 -9 31 -14 34 -5 3 -6 -2 -3 -10 3
-9 1 -16 -5 -16 -6 0 -13 11 -17 25 -3 14 -10 22 -15 19 -5 -3 -9 0 -9 6 0 7
-7 10 -15 6 -9 -3 -15 0 -15 9 0 18 12 19 28 3 9 -9 12 -9 12 3 0 8 -3 19 -8
25 -4 5 -3 6 3 2 16 -13 25 -9 25 12 0 19 6 22 56 23 18 1 53 27 47 34 -2 2
-1 3 2 3 3 0 10 0 16 0 5 0 7 -5 3 -12 -4 -6 1 -17 12 -25 18 -13 18 -15 1
-24 -17 -10 -16 -12 2 -38 15 -21 17 -31 9 -39 -9 -9 -6 -12 14 -12 35 0 53
22 38 49 -6 12 -16 21 -22 21 -7 0 -5 6 4 13 9 6 19 21 22 32 5 19 2 21 -29
17 -27 -3 -35 -1 -35 12 0 9 7 16 16 16 8 0 12 -4 9 -10 -3 -5 1 -10 9 -10 8
0 18 5 22 12 4 7 3 8 -4 4 -7 -4 -12 -2 -12 4 0 6 12 10 28 9 43 -3 62 0 62
11 0 7 -6 7 -20 0 -16 -9 -22 -6 -35 20 -14 27 -14 30 1 30 10 0 14 -5 11 -15z
m85 -50 c1 -30 -2 -58 -6 -62 -3 -3 -6 24 -6 62 0 38 3 66 6 62 3 -3 6 -31 6
-62z m1068 55 c0 -5 -4 -10 -10 -10 -5 0 -10 5 -10 10 0 6 5 10 10 10 6 0 10
-4 10 -10z m-240 -21 c0 -6 -4 -7 -10 -4 -5 3 -10 11 -10 16 0 6 5 7 10 4 6
-3 10 -11 10 -16z m-1690 7 c0 -3 -4 -8 -10 -11 -5 -3 -10 -1 -10 4 0 6 5 11
10 11 6 0 10 -2 10 -4z m730 -23 c0 -12 -3 -13 -14 -4 -11 9 -15 9 -19 -1 -4
-9 -6 -7 -6 4 -1 16 18 29 32 21 4 -2 7 -11 7 -20z m1031 13 c5 3 9 -1 9 -9 0
-22 -26 -16 -27 7 -1 12 1 15 4 8 3 -6 9 -10 14 -6z m74 -4 c-3 -3 -11 0 -18
7 -9 10 -8 11 6 5 10 -3 15 -9 12 -12z m61 3 c-4 -24 -16 -30 -16 -7 0 12 4
22 9 22 5 0 8 -7 7 -15z m-1247 -7 c11 -11 12 -10 6 1 -5 9 -4 12 3 7 20 -12
13 -28 -10 -24 -20 3 -39 28 -21 28 5 0 15 -6 22 -12z m1791 2 c0 -4 -6 -12
-12 -19 -11 -11 -10 -13 5 -8 9 4 17 2 17 -3 0 -5 -17 -9 -39 -8 -35 0 -37 2
-28 22 9 18 57 32 57 16z m-1378 -14 c13 -10 15 -15 6 -24 -15 -15 -31 -16
-22 -1 5 8 1 8 -14 0 -15 -8 -23 -8 -28 1 -4 6 -3 8 4 4 6 -3 13 3 17 14 7 23
14 24 37 6z m608 4 c0 -5 -4 -10 -10 -10 -5 0 -10 5 -10 10 0 6 5 10 10 10 6
0 10 -4 10 -10z m-61 -13 c6 -8 8 -16 5 -20 -10 -9 -34 4 -34 19 0 18 14 18
29 1z m488 -19 c-3 -7 -5 -2 -5 12 0 14 2 19 5 13 2 -7 2 -19 0 -25z m707 23
c3 -5 -1 -11 -9 -14 -9 -4 -12 -1 -8 9 6 16 10 17 17 5z m-1022 -23 c-7 -7
-12 -8 -12 -2 0 14 12 26 19 19 2 -3 -1 -11 -7 -17z m103 -8 c3 -5 -1 -10 -9
-10 -9 0 -16 5 -16 10 0 6 4 10 9 10 6 0 13 -4 16 -10z m635 -9 c0 -15 -16
-22 -35 -15 -13 5 -14 8 -3 15 18 12 38 11 38 0z m-1785 -21 c3 -5 1 -10 -4
-10 -6 0 -11 5 -11 10 0 6 2 10 4 10 3 0 8 -4 11 -10z m1125 6 c0 -2 -6 -16
-14 -31 -9 -16 -17 -22 -21 -15 -5 8 -11 8 -21 -1 -12 -10 -13 -9 -9 5 3 9 7
23 10 31 4 13 55 23 55 11z m-655 -16 c-3 -5 -12 -10 -18 -10 -7 0 -6 4 3 10
19 12 23 12 15 0z m922 -37 c-3 -10 -5 -2 -5 17 0 19 2 27 5 18 2 -10 2 -26 0
-35z m-30 -10 c-3 -10 -5 -2 -5 17 0 19 2 27 5 18 2 -10 2 -26 0 -35z m-1226
13 c-6 -6 -12 -41 -14 -76 -3 -63 -3 -62 -5 17 -2 70 0 82 13 77 11 -4 12 -10
6 -18z m1780 15 c-8 -5 -20 -7 -28 -4 -21 8 -15 13 15 13 20 0 23 -3 13 -9z
m-131 -36 c0 -11 -5 -27 -11 -35 -9 -13 -10 -13 -8 0 1 8 1 23 0 34 -1 15 -4
16 -16 6 -14 -12 -22 0 -9 13 14 14 44 2 44 -18z m77 13 c-2 -7 -14 -12 -27
-10 -16 3 -20 0 -15 -10 7 -11 5 -11 -6 0 -12 11 -12 14 1 22 22 14 52 12 47
-2z m-1707 -13 c0 -9 7 -18 15 -21 20 -8 19 -31 -2 -43 -10 -5 -17 -12 -15
-15 1 -3 -1 -6 -5 -5 -12 1 -14 99 -3 99 6 0 10 -7 10 -15z m280 11 c0 -3 -4
-8 -10 -11 -5 -3 -10 -1 -10 4 0 6 5 11 10 11 6 0 10 -2 10 -4z m55 -6 c8 -13
-5 -13 -25 0 -13 8 -13 10 2 10 9 0 20 -4 23 -10z m1474 -12 c13 -20 12 -22
-1 -11 -8 7 -17 10 -20 7 -3 -2 -8 2 -11 11 -10 24 16 18 32 -7z m-1278 -11
c-10 -9 -11 -8 -5 6 3 10 9 15 12 12 3 -3 0 -11 -7 -18z m639 3 c0 -5 -5 -10
-11 -10 -5 0 -7 5 -4 10 3 6 8 10 11 10 2 0 4 -4 4 -10z m248 -15 c-3 -3 -9 2
-12 12 -6 14 -5 15 5 6 7 -7 10 -15 7 -18z m706 9 c3 -8 2 -12 -4 -9 -6 3 -10
10 -10 16 0 14 7 11 14 -7z m-872 -32 c-17 -5 -15 -39 4 -46 9 -3 19 -4 23 -2
4 3 8 -15 8 -40 1 -50 -7 -60 -37 -44 -17 9 -20 21 -20 91 0 76 1 80 17 63 13
-13 14 -19 5 -22z m633 28 c-3 -5 -12 -10 -18 -10 -7 0 -6 4 3 10 19 12 23 12
15 0z m-1650 -29 c-3 -12 -11 -21 -16 -21 -14 0 -11 38 4 43 17 6 20 2 12 -22z
m972 -38 c-2 -16 -4 -5 -4 22 0 28 2 40 4 28 2 -13 2 -35 0 -50z m-1567 47 c0
-5 -4 -10 -10 -10 -5 0 -10 5 -10 10 0 6 5 10 10 10 6 0 10 -4 10 -10z m902
-11 c-15 -6 -20 -14 -16 -26 5 -14 4 -15 -4 -4 -8 11 -12 10 -21 -5 -6 -11
-11 -14 -11 -7 0 6 7 18 15 26 8 8 11 18 7 22 -4 5 -1 5 6 1 6 -4 12 -3 12 3
0 6 7 8 17 4 14 -5 13 -7 -5 -14z m353 11 c3 -5 1 -10 -4 -10 -6 0 -11 5 -11
10 0 6 2 10 4 10 3 0 8 -4 11 -10z m278 -15 c-7 -21 -12 -19 -10 4 0 11 5 18
9 15 4 -3 5 -11 1 -19z m587 15 c0 -5 -4 -10 -10 -10 -5 0 -10 5 -10 10 0 6 5
10 10 10 6 0 10 -4 10 -10z m-900 -10 c0 -5 -4 -10 -9 -10 -5 0 -7 -10 -5 -22
4 -21 4 -21 -4 -3 -5 11 -7 26 -5 33 6 14 23 16 23 2z m480 6 c0 -3 -4 -8 -10
-11 -5 -3 -10 -1 -10 4 0 6 5 11 10 11 6 0 10 -2 10 -4z m111 -20 c-6 -7 -8
-16 -4 -19 3 -4 1 -7 -4 -7 -16 0 -21 23 -9 36 15 16 30 6 17 -10z m-351 -10
c0 -14 5 -28 12 -32 8 -5 9 -2 5 9 -4 11 -1 17 7 17 9 0 13 -9 11 -25 -1 -14
2 -25 6 -25 5 0 9 5 9 11 0 7 9 5 24 -5 18 -11 26 -12 29 -3 3 6 4 2 4 -10 -1
-13 -5 -23 -10 -23 -4 0 -5 -5 -1 -12 5 -7 2 -10 -7 -7 -8 3 -25 -5 -38 -18
-19 -18 -21 -23 -8 -23 10 0 17 4 17 9 0 5 11 8 25 7 l25 -1 0 -118 c0 -114
-1 -117 -20 -105 -10 7 -20 21 -22 33 -2 11 -12 21 -24 23 -16 2 -21 10 -21
32 0 17 4 30 8 30 14 0 70 56 63 63 -4 4 -22 -3 -41 -14 -18 -11 -33 -17 -33
-12 0 5 -11 10 -25 11 -14 1 -25 -3 -25 -9 0 -6 -9 -9 -19 -6 -13 3 -21 -1
-24 -15 -3 -11 -10 -17 -17 -13 -6 3 -10 3 -9 -2 4 -21 -2 -32 -14 -27 -8 3
-20 -2 -27 -11 -19 -23 6 -19 64 10 55 28 60 29 51 15 -10 -16 5 -50 21 -50 8
0 12 -5 9 -10 -4 -6 0 -22 9 -35 20 -30 20 -35 0 -35 -8 0 -12 -5 -8 -11 3 -6
17 -9 30 -6 13 2 24 0 24 -4 0 -5 7 -9 16 -9 8 0 13 -4 9 -9 -3 -5 2 -16 10
-24 8 -9 15 -20 15 -26 0 -8 -137 -11 -450 -11 -247 0 -450 4 -450 8 0 4 12 8
27 7 19 0 28 5 29 18 1 12 1 13 -3 2 -5 -18 -17 -19 -45 -4 -15 8 -27 8 -45
-2 l-25 -14 23 -6 c15 -4 -3 -7 -44 -8 -65 -1 -67 0 -57 19 12 23 25 27 16 5
-3 -8 0 -15 7 -15 8 0 13 17 13 50 0 34 6 56 20 71 10 12 19 31 19 43 0 12 9
25 23 31 22 10 25 32 3 27 -6 -1 -11 2 -11 7 0 6 9 9 20 8 15 -1 20 -8 20 -29
0 -15 -5 -28 -11 -28 -5 0 -8 -4 -4 -9 3 -6 -4 -15 -15 -21 -25 -13 -27 -32
-2 -24 12 4 10 0 -7 -14 -22 -18 -22 -19 -5 -27 11 -5 23 -7 27 -6 5 1 6 -2 3
-7 -6 -9 11 -39 18 -31 12 12 16 69 4 69 -6 0 -9 2 -7 5 3 2 20 0 39 -5 26 -7
31 -7 22 2 -21 21 -13 36 23 48 29 10 35 16 35 40 0 28 -19 54 -21 28 0 -7 -4
-3 -9 10 -5 12 -14 22 -20 22 -5 0 -10 7 -10 15 0 8 -4 15 -10 15 -14 0 -12
13 6 36 15 18 15 18 10 0 -5 -14 -2 -17 10 -12 13 5 15 4 5 -7 -9 -12 -7 -13
14 -9 19 3 25 0 25 -13 0 -17 27 -50 42 -50 5 0 13 -7 18 -15 13 -20 13 -8 0
27 -10 27 -10 28 7 8 18 -21 50 -22 68 -3 7 8 5 9 -6 5 -10 -3 -19 4 -26 22
-8 22 -7 28 3 28 8 0 14 -4 14 -9 0 -5 7 -16 16 -25 8 -9 13 -21 10 -28 -5
-14 20 -28 35 -20 13 8 -1 -27 -19 -48 -8 -9 -12 -20 -7 -25 4 -4 10 -1 12 6
3 6 11 12 19 12 8 0 14 7 14 15 0 8 5 15 10 15 6 0 10 6 10 14 0 8 5 18 12 22
7 5 9 2 4 -7 -4 -8 -1 -6 7 4 8 9 19 17 25 17 5 0 21 12 34 28 30 34 53 41 45
12 -3 -11 -1 -20 5 -20 5 0 7 -12 3 -30 -4 -19 -3 -30 4 -30 6 0 11 5 11 11 0
5 4 8 9 5 5 -4 12 11 16 33 4 25 17 49 37 67 17 16 28 23 24 16 -4 -6 9 -3 28
9 20 12 33 26 29 32 -3 6 -1 7 6 3 7 -5 9 -17 5 -29 -5 -18 -4 -20 7 -10 9 10
10 18 1 37 -10 22 -9 24 9 21 10 -2 19 1 19 7 0 5 7 8 15 4 9 -3 15 0 15 9 0
8 4 15 9 15 5 0 13 9 16 20 4 11 11 18 16 14 5 -3 7 -10 4 -15 -4 -5 -2 -9 3
-9 14 0 33 26 25 33 -3 4 -1 7 5 7 7 0 12 -11 12 -24z m190 8 c0 -8 -5 -12
-10 -9 -6 4 -8 11 -5 16 9 14 15 11 15 -7z m117 -26 c-4 -14 -2 -18 9 -14 8 3
14 1 14 -4 0 -14 -22 -12 -44 5 -15 12 -16 16 -5 28 18 19 32 10 26 -15z
m-580 -3 c0 -8 -4 -12 -9 -9 -5 3 -6 10 -3 15 9 13 12 11 12 -6z m1161 -9
c-17 -18 -55 -18 -62 -1 -4 13 -2 13 14 5 16 -8 22 -8 26 4 3 8 12 12 19 9 11
-3 11 -8 3 -17z m-1305 -3 c-7 -3 -14 -14 -14 -26 -1 -18 -2 -19 -6 -4 -5 19
16 52 26 41 3 -4 0 -9 -6 -11z m692 0 c37 -21 7 -24 -31 -3 -32 17 -34 20 -14
18 14 -2 34 -9 45 -15z m-899 -40 c-3 -4 -6 -1 -6 6 0 8 -8 10 -22 6 -22 -6
-23 -6 -3 10 17 14 20 14 28 -1 5 -8 6 -18 3 -21z m1554 19 c0 -5 -7 -9 -15
-9 -8 0 -12 4 -9 9 3 4 9 8 15 8 5 0 9 -4 9 -8z m-2276 -17 c-7 -16 -24 -21
-24 -6 0 8 7 13 27 20 1 1 0 -6 -3 -14z m2131 5 c-3 -5 -12 -10 -18 -10 -7 0
-6 4 3 10 19 12 23 12 15 0z m-1998 -31 c-3 -11 -1 -19 5 -19 5 0 6 -5 3 -10
-4 -6 -1 -17 5 -25 7 -8 9 -15 4 -15 -5 0 -2 -5 6 -10 12 -8 11 -10 -5 -10
-11 0 -28 9 -38 20 -15 18 -64 30 -54 13 3 -5 -13 -9 -34 -11 -22 -1 -39 1
-38 5 3 20 -2 34 -10 29 -5 -4 -7 4 -3 16 5 21 6 21 29 -6 12 -15 23 -23 23
-19 0 5 -6 15 -12 22 -11 11 -10 13 5 8 11 -4 17 -1 17 8 0 17 21 20 36 5 7
-7 16 -4 29 10 20 23 39 16 32 -11z m2673 21 c0 -5 -4 -10 -10 -10 -5 0 -10 5
-10 10 0 6 5 10 10 10 6 0 10 -4 10 -10z m-650 -20 c0 -5 -4 -10 -10 -10 -5 0
-10 5 -10 10 0 6 5 10 10 10 6 0 10 -4 10 -10z m-2205 -8 c15 -11 13 -61 -2
-55 -9 3 -11 13 -7 25 4 13 1 24 -7 29 -8 5 -9 9 -4 9 6 0 15 -4 20 -8z m1705
-17 c-7 -9 -15 -13 -17 -11 -7 7 7 26 19 26 6 0 6 -6 -2 -15z m800 5 c0 -5 -4
-10 -10 -10 -5 0 -10 5 -10 10 0 6 5 10 10 10 6 0 10 -4 10 -10z m-1650 -14
c0 -3 -4 -8 -10 -11 -5 -3 -10 -1 -10 4 0 6 5 11 10 11 6 0 10 -2 10 -4z m100
0 c0 -2 -7 -7 -16 -10 -8 -3 -12 -2 -9 4 6 10 25 14 25 6z m1380 -6 c0 -5 -4
-10 -10 -10 -5 0 -10 5 -10 10 0 6 5 10 10 10 6 0 10 -4 10 -10z m-1263 -6
c-3 -3 -12 -4 -19 -1 -8 3 -5 6 6 6 11 1 17 -2 13 -5z m-77 -8 c0 -3 -4 -8
-10 -11 -5 -3 -10 -1 -10 4 0 6 5 11 10 11 6 0 10 -2 10 -4z m-763 -53 c-3
-10 -5 -2 -5 17 0 19 2 27 5 18 2 -10 2 -26 0 -35z m1394 24 c6 -10 14 -15 20
-12 5 4 9 0 9 -7 0 -7 7 -3 15 9 10 14 21 20 32 16 12 -5 14 -3 8 7 -5 9 -4
11 3 6 7 -4 12 -14 12 -21 0 -10 6 -12 18 -8 15 6 15 5 3 -10 -12 -15 -11 -17
3 -17 9 0 16 -5 16 -11 0 -5 5 -7 11 -3 20 12 69 14 69 3 0 -6 5 -7 12 -3 6 4
8 3 4 -4 -6 -10 62 -59 77 -54 4 1 7 -3 7 -9 0 -5 3 -8 8 -5 4 2 16 -2 27 -10
10 -8 15 -15 9 -15 -5 -1 5 -4 21 -8 21 -5 29 -12 27 -24 -2 -10 3 -17 13 -17
8 0 15 -5 15 -11 0 -5 -5 -7 -11 -3 -8 5 -9 2 -1 -12 8 -14 6 -21 -6 -31 -16
-12 -16 -13 1 -7 9 3 17 1 17 -5 0 -14 -37 -15 -45 -1 -9 15 -64 9 -58 -7 5
-13 24 -13 33 -1 3 3 14 0 24 -8 17 -12 1 -14 -131 -14 -91 0 -154 4 -158 10
-3 6 -12 10 -18 10 -7 0 -6 -4 3 -10 10 -7 -13 -10 -73 -10 -61 0 -93 4 -102
14 -14 13 -17 64 -16 222 l1 80 46 -1 c32 0 49 -6 55 -18z m49 13 c0 -5 -5
-10 -11 -10 -5 0 -7 5 -4 10 3 6 8 10 11 10 2 0 4 -4 4 -10z m-1413 -62 c-2
-13 -4 -3 -4 22 0 25 2 35 4 23 2 -13 2 -33 0 -45z m683 53 c0 -10 -30 -24
-37 -17 -3 3 -2 9 2 15 8 13 35 15 35 2z m846 -6 c4 -8 10 -13 14 -10 5 3 11
1 14 -4 4 -5 -2 -8 -11 -6 -10 2 -21 4 -24 4 -11 2 -19 31 -8 31 5 0 12 -7 15
-15z m294 -3 c-8 -3 -21 -9 -27 -15 -9 -7 -13 -5 -13 6 0 9 8 17 18 20 21 4
41 -5 22 -11z m-50 -1 c0 -5 3 -16 6 -25 4 -11 0 -16 -14 -16 -15 0 -20 6 -18
25 1 23 26 38 26 16z m880 -21 c0 -5 -4 -10 -10 -10 -5 0 -10 5 -10 10 0 6 5
10 10 10 6 0 10 -4 10 -10z m-3285 -10 c-3 -5 -1 -10 6 -10 7 0 10 -3 6 -6 -9
-9 -28 6 -22 17 4 5 8 9 11 9 3 0 2 -4 -1 -10z m1002 -32 c-3 -7 -5 -2 -5 12
0 14 2 19 5 13 2 -7 2 -19 0 -25z m1333 13 c0 -5 -7 -12 -16 -15 -14 -5 -15
-4 -4 9 14 17 20 19 20 6z m-1733 -33 c-3 -7 -5 -2 -5 12 0 14 2 19 5 13 2 -7
2 -19 0 -25z m1828 22 c-3 -5 -12 -10 -18 -10 -7 0 -6 4 3 10 19 12 23 12 15
0z m-1772 -15 c-3 -9 -8 -14 -10 -11 -3 3 -2 9 2 15 9 16 15 13 8 -4z m1825
-2 c2 -8 -6 -13 -22 -13 -25 0 -33 10 -19 24 10 10 36 3 41 -11z m-1851 -15
c-3 -8 -6 -5 -6 6 -1 11 2 17 5 13 3 -3 4 -12 1 -19z m-195 -20 c-7 -7 -12 -8
-12 -2 0 14 12 26 19 19 2 -3 -1 -11 -7 -17z m2453 3 c3 -5 1 -12 -5 -16 -5
-3 -10 1 -10 9 0 18 6 21 15 7z m-2381 -36 c3 -8 1 -15 -4 -15 -6 0 -10 7 -10
15 0 8 2 15 4 15 2 0 6 -7 10 -15z m123 -32 c-3 -10 -5 -2 -5 17 0 19 2 27 5
18 2 -10 2 -26 0 -35z m-57 -22 c0 -5 -7 -12 -16 -15 -14 -5 -15 -4 -4 9 14
17 20 19 20 6z m30 -33 c0 -23 -3 -39 -6 -36 -9 10 -12 78 -3 78 5 0 9 -19 9
-42z m125 32 c-3 -5 -10 -10 -16 -10 -5 0 -9 5 -9 10 0 6 7 10 16 10 8 0 12
-4 9 -10z m-51 -59 c-6 -6 -11 1 -18 29 l-7 25 15 -25 c8 -14 12 -27 10 -29z
m56 27 c0 -7 3 -23 6 -35 5 -17 2 -23 -11 -23 -12 0 -16 6 -12 20 3 11 1 20
-4 20 -4 0 -6 7 -3 15 7 18 24 20 24 3z m1736 -14 c-4 -12 -2 -15 9 -10 19 7
19 -1 1 -20 -8 -8 -25 -13 -38 -13 -17 1 -19 2 -5 6 10 2 17 10 16 16 -3 24 1
37 12 37 6 0 8 -7 5 -16z m-1886 -14 c0 -5 -4 -10 -10 -10 -5 0 -10 5 -10 10
0 6 5 10 10 10 6 0 10 -4 10 -10z m200 -20 c0 -5 -2 -10 -4 -10 -3 0 -8 5 -11
10 -3 6 -1 10 4 10 6 0 11 -4 11 -10z m-457 -7 c-7 -2 -19 -2 -25 0 -7 3 -2 5
12 5 14 0 19 -2 13 -5z m2554 -50 c-3 -2 -8 5 -12 16 -3 12 -11 19 -16 16 -11
-7 -12 8 -2 19 4 4 13 -5 21 -20 7 -14 11 -28 9 -31z m341 22 c13 5 14 4 5 -6
-10 -10 -17 -9 -33 6 -11 10 -17 22 -13 28 3 6 10 0 15 -12 6 -17 13 -21 26
-16z m-1978 -61 l0 -74 -156 0 -155 0 3 23 c2 12 9 21 16 19 8 -1 11 2 8 7 -3
5 1 14 9 21 8 7 13 16 10 20 -3 5 -1 11 5 15 18 11 10 23 -15 21 -22 -1 -23
-2 -10 -23 9 -14 11 -24 5 -28 -6 -3 -10 -1 -10 5 0 7 -6 10 -14 7 -7 -3 -18
-1 -23 4 -6 6 -14 4 -23 -6 -10 -12 -10 -18 0 -30 15 -18 0 -20 -20 -2 -12 10
-12 9 -1 -5 7 -9 10 -21 7 -27 -3 -5 0 -12 6 -14 7 -3 -33 -6 -89 -6 -62 -1
-104 3 -104 9 -1 6 -2 14 -3 19 0 5 -5 13 -10 18 -6 5 -6 2 -1 -6 6 -11 4 -13
-8 -8 -21 8 -21 3 -1 -17 14 -15 12 -16 -18 -15 -18 1 -25 3 -15 6 9 2 15 8
13 12 -11 17 -16 71 -7 71 5 0 17 3 25 6 12 5 15 2 10 -10 -3 -9 -1 -16 5 -16
6 0 11 8 11 17 0 23 29 53 52 53 17 0 18 -2 5 -15 -19 -19 -10 -56 14 -62 11
-3 17 -9 14 -13 -3 -4 3 -11 13 -15 16 -7 15 -8 -3 -15 -17 -7 -15 -9 11 -9
27 -1 31 3 32 27 1 44 8 66 20 70 20 6 13 22 -10 24 -13 1 58 5 157 8 99 3
195 6 213 7 l32 2 0 -75z m282 40 c-38 -18 -89 -51 -114 -73 -41 -37 -52 -41
-97 -41 l-51 0 0 73 0 72 165 1 164 0 -67 -32z m527 20 c10 -3 11 -8 3 -16 -8
-8 -23 -7 -57 3 -40 12 -43 15 -23 20 22 5 45 3 77 -7z m306 2 c17 -2 15 -4
-9 -14 -34 -15 -30 -22 14 -28 24 -4 30 -2 25 7 -6 9 -2 11 13 7 13 -4 22 -1
22 4 0 6 8 4 18 -5 21 -19 44 -5 36 22 -3 9 1 5 9 -9 l15 -24 5 24 c2 14 5
-73 6 -193 0 -130 -3 -216 -8 -213 -5 4 -12 0 -15 -6 -3 -7 -4 -4 -1 7 6 26
-4 40 -34 50 -18 5 -22 4 -16 -6 5 -8 4 -11 -1 -6 -17 16 -32 105 -20 118 8 8
8 13 -1 16 -7 3 -13 9 -13 14 0 6 6 7 13 3 18 -11 -11 25 -51 63 -41 40 -70
50 -78 29 -3 -9 -10 -13 -15 -10 -22 13 -6 -17 16 -32 14 -9 31 -26 37 -38 6
-11 -20 8 -57 42 -63 57 -87 92 -65 92 15 0 21 -18 8 -23 -8 -3 -3 -9 12 -15
14 -5 29 -6 33 -2 13 12 4 43 -13 47 -78 18 -96 14 -67 -16 11 -12 -16 1 -74
35 -10 6 -16 14 -11 19 4 4 -1 5 -10 2 -24 -8 -29 4 -12 28 13 17 16 18 24 5
7 -10 10 -11 10 -2 0 6 9 12 20 12 11 0 20 -5 20 -11 0 -5 5 -7 12 -3 27 17
122 22 203 10z m201 6 c-5 -4 65 -72 74 -72 8 0 6 -54 -3 -67 -5 -8 3 -13 25
-15 24 -2 34 -9 36 -23 2 -11 11 -28 19 -37 15 -17 25 -81 11 -72 -4 3 -8 12
-8 21 0 9 -3 14 -6 10 -4 -3 -19 0 -33 8 -28 14 -76 14 -89 0 -4 -4 2 -5 13
-1 14 4 24 -1 34 -17 13 -20 13 -21 -2 -8 -15 12 -17 11 -17 -3 0 -10 9 -16
25 -16 19 0 23 4 18 18 -5 15 -4 14 9 -2 8 -10 20 -16 26 -12 7 4 12 2 12 -5
0 -6 10 -20 22 -30 12 -11 15 -19 8 -19 -8 0 -11 -9 -8 -24 3 -16 1 -23 -7
-20 -23 9 -25 -35 -2 -51 19 -13 17 -20 -5 -16 -5 0 -8 -3 -8 -9 0 -5 -7 -6
-17 -3 -11 4 -14 3 -9 -5 5 -9 0 -9 -21 0 -15 7 -30 15 -33 19 -3 3 -12 9 -20
13 -8 3 -1 4 15 1 17 -3 25 -2 19 2 -5 4 -18 19 -28 33 -13 17 -16 19 -12 6 5
-16 4 -17 -9 -6 -13 10 -15 9 -15 -7 0 -11 -9 -28 -19 -37 -18 -16 -19 -16
-22 21 -2 21 -3 126 -1 234 2 164 5 196 17 196 8 0 13 -2 11 -5z m484 -2 c8
-5 11 -10 5 -10 -5 0 -17 5 -25 10 -8 5 -10 10 -5 10 6 0 17 -5 25 -10z
m-1312 -70 l-1 -70 -165 0 -165 0 23 25 c25 26 170 101 210 108 14 2 42 5 62
6 l37 1 -1 -70z m111 64 c31 -6 31 -7 31 -70 l0 -64 -65 0 -65 0 0 70 0 70 34
0 c18 0 48 -3 65 -6z m1228 -26 c-3 -8 -6 -5 -6 6 -1 11 2 17 5 13 3 -3 4 -12
1 -19z m-2484 -60 c6 -42 1 -51 -24 -38 -16 9 -16 13 -4 37 10 18 11 31 5 37
-6 6 -10 17 -10 25 0 28 27 -21 33 -61z m77 68 c0 -3 -4 -8 -10 -11 -5 -3 -10
-1 -10 4 0 6 5 11 10 11 6 0 10 -2 10 -4z m1287 -32 c18 -1 30 3 27 7 -7 11 7
11 25 0 7 -5 10 -14 7 -20 -8 -13 37 -33 68 -30 38 2 47 -1 40 -13 -4 -7 -4
-10 1 -6 21 20 202 -120 191 -148 -3 -7 -1 -16 4 -19 17 -11 11 -45 -7 -45
-15 0 -15 -2 -4 -9 12 -8 12 -12 -2 -26 -16 -15 -14 -18 18 -48 33 -30 34 -33
16 -44 -16 -10 -20 -8 -31 13 -10 18 -16 21 -22 12 -6 -10 -10 -10 -17 1 -6
10 -10 10 -16 1 -4 -6 1 -18 11 -25 11 -8 14 -15 9 -15 -17 0 -12 -40 5 -40 8
0 24 -7 34 -15 28 -21 34 -19 34 11 0 14 -4 21 -7 15 -5 -8 -14 -4 -27 10 -14
16 -15 20 -4 17 8 -3 22 -2 31 3 11 5 16 3 17 -7 1 -7 3 -21 4 -29 1 -8 5 -15
10 -15 4 0 8 -4 8 -10 0 -5 -6 -10 -14 -10 -18 0 -48 -58 -39 -74 4 -6 8 -15
8 -21 2 -19 17 -45 27 -45 6 0 5 7 -2 15 -7 9 -11 18 -8 20 12 13 30 -26 22
-46 l-9 -20 -24 20 c-13 11 -26 19 -30 17 -10 -7 -28 19 -25 37 1 9 -4 17 -12
17 -23 0 -16 -19 18 -53 18 -18 33 -34 34 -37 4 -21 18 -39 25 -34 5 3 7 10 4
15 -3 5 1 6 9 3 9 -3 13 -10 10 -15 -3 -5 0 -9 7 -9 7 0 9 10 7 24 -4 18 -1
23 9 19 8 -3 12 -11 9 -18 -2 -7 1 -18 7 -24 9 -9 3 -12 -28 -12 -22 -1 -140
-1 -262 -2 l-223 -2 -2 70 c-5 239 -6 606 -1 639 5 35 7 37 17 20 7 -12 23
-19 43 -20z m1093 24 c0 -5 -7 -8 -15 -8 -8 0 -18 0 -22 -1 -4 0 -9 4 -11 9
-2 6 8 9 23 8 14 0 25 -4 25 -8z m-1083 -4 c-3 -3 -12 -4 -19 -1 -8 3 -5 6 6
6 11 1 17 -2 13 -5z m1003 -10 c0 -2 -7 -4 -15 -4 -8 0 -15 4 -15 10 0 5 7 7
15 4 8 -4 15 -8 15 -10z m-2430 -24 c0 -5 -2 -10 -4 -10 -3 0 -8 5 -11 10 -3
6 -1 10 4 10 6 0 11 -4 11 -10z m285 0 c3 -5 2 -10 -4 -10 -5 0 -13 5 -16 10
-3 6 -2 10 4 10 5 0 13 -4 16 -10z m1235 0 c12 -8 11 -10 -7 -10 -13 0 -23 5
-23 10 0 13 11 13 30 0z m-1585 -19 c-3 -6 -11 -11 -16 -11 -5 0 -4 6 3 14 14
16 24 13 13 -3z m2265 -11 c0 -5 -7 -10 -15 -10 -8 0 -15 5 -15 10 0 6 7 10
15 10 8 0 15 -4 15 -10z m-2229 -23 c-10 -9 -11 -8 -5 6 3 10 9 15 12 12 3 -3
0 -11 -7 -18z m1809 -27 c0 -5 -5 -10 -11 -10 -5 0 -7 5 -4 10 3 6 8 10 11 10
2 0 4 -4 4 -10z m-1070 -376 c0 -280 -3 -374 -12 -374 -11 0 -55 13 -110 32
-16 6 -25 15 -22 23 3 7 1 16 -5 20 -7 3 -8 0 -5 -9 20 -51 -127 36 -230 137
-43 42 -76 80 -72 84 3 4 13 -2 21 -13 13 -17 14 -17 15 -2 0 17 -33 42 -42
32 -3 -3 -5 7 -5 21 0 15 7 30 18 36 16 8 22 4 37 -20 13 -21 22 -27 29 -20 6
6 19 6 37 -1 17 -6 25 -6 21 0 -8 13 1 13 26 0 13 -7 19 -7 19 0 0 5 9 10 19
10 10 0 22 7 25 16 3 8 2 12 -4 9 -6 -3 -13 1 -16 9 -3 9 -10 16 -15 16 -4 0
-6 -7 -3 -15 4 -8 1 -15 -5 -15 -18 0 -25 31 -10 41 9 6 10 12 4 17 -12 8 -15
53 -3 46 16 -10 7 9 -12 26 -13 12 -20 29 -19 51 0 19 -1 58 -3 87 -3 28 -1
52 3 52 4 0 6 11 4 25 -1 14 2 25 6 25 5 0 8 3 8 8 -1 4 -1 9 0 12 0 3 69 6
151 7 l150 2 0 -375z m110 370 c0 -2 -14 -24 -32 -50 -17 -26 -37 -63 -44 -83
-13 -34 -13 -32 -14 52 l0 88 45 -2 c25 -2 45 -4 45 -5z m39 -148 l0 -154 -61
-4 c-43 -2 -62 1 -66 10 -8 21 16 121 42 178 22 48 72 124 82 124 2 0 3 -69 3
-154z m58 112 l-42 -43 -3 28 c-5 46 4 57 47 57 l41 0 -43 -42z m278 32 c8
-13 -5 -13 -25 0 -13 8 -13 10 2 10 9 0 20 -4 23 -10z m145 -82 l-1 -93 -19
36 c-10 19 -39 54 -64 77 -65 60 -61 72 19 72 l65 0 0 -92z m-987 70 c-32 -11
-43 -31 -23 -43 18 -11 10 -25 -15 -25 -23 0 -29 11 -24 46 1 8 -22 24 -33 24
-12 0 -9 -35 3 -47 7 -7 8 -19 4 -30 -14 -33 -17 -54 -12 -108 3 -39 41 -49
50 -13 7 25 23 16 29 -17 2 -16 -3 -20 -27 -21 -29 0 -89 26 -110 48 -7 8 -6
9 3 4 8 -5 12 0 12 14 0 11 7 23 15 26 8 4 15 11 15 16 0 6 -7 8 -15 5 -11 -5
-13 0 -8 25 4 22 3 29 -5 24 -7 -4 -12 -2 -12 3 0 6 6 11 13 11 6 0 4 5 -7 11
-15 9 -16 13 -5 20 11 7 10 9 -3 9 -10 0 -18 5 -18 10 0 6 -7 10 -16 10 -14 0
-14 -3 -4 -15 20 -24 4 -29 -18 -7 -12 12 -24 16 -29 11 -6 -6 -10 -4 -10 6 0
13 21 15 141 14 113 -1 135 -3 109 -11z m687 -68 l0 -80 -84 0 -85 0 10 33
c18 62 87 127 135 127 23 0 24 -3 24 -80z m130 55 l30 -16 0 -119 0 -120 -74
0 -74 0 -1 141 -2 142 46 -6 c25 -4 59 -14 75 -22z m-1140 -6 c0 -6 -4 -7 -10
-4 -5 3 -10 11 -10 16 0 6 5 7 10 4 6 -3 10 -11 10 -16z m-623 5 c-3 -3 -12
-4 -19 -1 -8 3 -5 6 6 6 11 1 17 -2 13 -5z m386 -18 c4 -10 0 -12 -14 -9 -22
6 -26 23 -5 23 8 0 16 -6 19 -14z m577 -1 c0 -2 -9 -3 -19 -2 -11 0 -18 5 -15
9 4 6 34 0 34 -7z m1485 -5 c3 -5 1 -10 -4 -10 -6 0 -11 5 -11 10 0 6 2 10 4
10 3 0 8 -4 11 -10z m-579 -61 c31 -41 49 -82 58 -131 l7 -38 -66 0 -65 0 0
116 c0 114 0 115 21 101 11 -8 31 -30 45 -48z m-1206 10 c0 -26 -2 -28 -26
-19 -14 6 -27 10 -30 10 -7 0 0 -25 10 -31 4 -4 3 -10 -3 -13 -6 -4 -11 -4
-12 1 0 4 -2 17 -4 28 -2 11 1 23 8 27 9 6 8 8 -2 8 -11 0 -10 4 4 14 28 21
55 9 55 -25z m233 -19 c-4 -16 -8 -18 -19 -9 -16 13 -19 23 -5 14 5 -3 12 -1
16 5 10 16 14 12 8 -10z m41 -49 c-2 -2 -10 -1 -19 3 -13 5 -14 9 -4 28 l13
23 6 -25 c4 -14 5 -27 4 -29z m-277 -13 c-3 -8 -6 -5 -6 6 -1 11 2 17 5 13 3
-3 4 -12 1 -19z m103 -30 c18 3 30 0 30 -7 0 -6 7 -11 15 -11 8 0 22 -14 30
-31 16 -29 15 -31 -4 -36 -13 -3 -18 -10 -14 -20 5 -13 1 -15 -19 -11 -20 4
-25 1 -22 -11 2 -9 -9 11 -26 44 -16 33 -32 76 -35 95 -5 32 -4 33 5 9 9 -21
16 -25 40 -21z m810 -13 c0 -54 -1 -56 -22 -50 -30 9 -78 60 -78 83 0 15 9 19
50 21 l50 2 0 -56z m60 30 c0 -20 -5 -25 -25 -25 -20 0 -25 5 -25 25 0 20 5
25 25 25 20 0 25 -5 25 -25z m-915 -92 c4 -16 2 -22 -5 -18 -5 3 -10 1 -10 -4
0 -6 7 -11 15 -11 8 0 19 -9 25 -19 14 -27 12 -40 -3 -16 -20 33 -38 30 -25
-5 5 -17 14 -30 18 -30 4 0 7 -7 6 -16 0 -10 11 -21 30 -28 18 -6 64 -46 104
-88 84 -91 183 -160 295 -205 44 -18 73 -33 65 -33 -8 -1 -53 -1 -100 0 -47 0
-138 0 -203 0 -105 -1 -121 1 -148 21 -19 14 -28 27 -24 37 5 14 -25 52 -43
52 -13 0 -9 69 5 74 7 3 13 0 13 -6 0 -9 3 -9 11 -1 6 6 17 9 24 7 18 -7 29
14 16 30 -6 7 -8 16 -4 19 3 4 1 7 -5 7 -7 0 -12 -4 -12 -9 0 -10 -39 -3 -56
10 -6 5 -14 6 -17 2 -4 -3 -7 70 -7 163 1 156 2 166 15 130 7 -21 16 -49 20
-63z m-75 77 c0 -5 -2 -10 -4 -10 -3 0 -8 5 -11 10 -3 6 -1 10 4 10 6 0 11 -4
11 -10z m-120 -10 c0 -5 -4 -10 -10 -10 -5 0 -10 5 -10 10 0 6 5 10 10 10 6 0
10 -4 10 -10z m139 -17 c0 -16 -3 -22 -6 -15 -2 6 -9 9 -15 6 -5 -3 -4 3 4 15
17 27 18 27 17 -6z m2166 8 c-3 -6 -11 -11 -17 -11 -6 0 -6 6 2 15 14 17 26
13 15 -4z m509 -21 c-6 -5 -24 21 -24 34 0 6 6 1 14 -10 8 -10 12 -21 10 -24z
m-2734 13 c-8 -3 -20 -10 -26 -14 -6 -5 -11 -4 -11 4 0 7 12 13 26 14 14 1 19
-1 11 -4z m1020 -6 c0 -14 -20 -37 -32 -37 -10 0 -11 34 -1 43 11 12 33 8 33
-6z m-135 -17 c18 -19 17 -20 -3 -20 -15 0 -22 6 -22 20 0 11 2 20 3 20 2 0
12 -9 22 -20z m-825 -55 c0 -36 -3 -43 -16 -38 -13 5 -13 7 -2 14 11 7 10 11
-2 18 -8 5 -17 8 -21 5 -11 -7 -21 14 -13 27 4 8 9 7 15 -2 7 -11 9 -10 9 4 0
9 7 17 15 17 11 0 15 -12 15 -45z m1994 9 c3 -8 14 -14 25 -14 23 0 64 -47 54
-63 -4 -6 0 -8 9 -5 11 5 14 0 10 -20 -4 -20 -2 -24 12 -19 9 4 16 1 16 -4 0
-6 -9 -9 -19 -6 -28 7 -33 -17 -9 -43 19 -20 22 -21 30 -6 5 9 13 14 19 11 5
-4 9 -2 9 3 0 6 6 12 13 15 8 3 14 -1 14 -9 0 -7 -4 -11 -7 -9 -4 3 -5 -16 -2
-42 3 -33 2 -44 -7 -39 -6 4 -11 3 -11 -3 0 -7 -8 -7 -22 -2 -17 6 -22 15 -20
35 2 14 -2 26 -8 26 -6 0 -8 -4 -5 -10 3 -5 2 -10 -3 -10 -13 0 -59 39 -47 40
6 0 -3 9 -19 19 -17 11 -35 17 -40 14 -6 -4 -5 0 1 9 7 8 10 18 6 21 -13 13
14 7 33 -8 12 -9 14 -14 6 -15 -7 0 -11 -4 -7 -10 3 -5 13 -6 22 -3 14 5 12 9
-9 27 -14 12 -34 26 -44 33 -15 9 -16 14 -6 21 14 10 2 54 -17 67 -6 3 -11 10
-11 15 0 14 28 1 34 -16z m-1711 3 c3 -8 1 -20 -3 -27 -5 -8 -4 -22 1 -31 12
-24 12 -26 -7 -33 -10 -4 -25 1 -35 10 -23 21 -25 36 -4 28 10 -4 15 0 15 15
0 12 -4 21 -10 21 -5 0 -7 7 -4 15 8 19 40 20 47 2z m837 5 c0 -5 -72 -9 -160
-10 -88 -1 -160 2 -160 7 0 4 72 9 160 10 88 0 160 -3 160 -7z m146 -4 c10
-15 -26 -155 -52 -205 -14 -26 -36 -60 -50 -76 l-24 -29 0 160 0 159 60 0 c33
0 63 -4 66 -9z m641 -10 c-3 -8 -6 -5 -6 6 -1 11 2 17 5 13 3 -3 4 -12 1 -19z
m51 -21 c2 -12 -1 -15 -12 -11 -19 7 -22 38 -3 32 6 -3 13 -12 15 -21z m-1168
-102 c0 -109 -1 -115 -18 -106 -43 23 -112 147 -112 201 0 18 7 20 65 20 l65
0 0 -115z m156 -26 l-1 -141 -43 6 c-23 3 -56 13 -72 21 l-30 16 0 119 0 120
74 0 73 0 -1 -141z m62 119 c-3 -21 -21 -30 -41 -20 -10 5 22 42 35 42 5 0 8
-10 6 -22z m85 -19 c43 -46 37 -64 -23 -64 l-50 0 0 53 c0 51 1 53 23 47 12
-4 34 -20 50 -36z m37 21 c0 -11 -2 -20 -3 -20 -2 0 -12 9 -22 20 -18 19 -17
20 3 20 15 0 22 -6 22 -20z m-1835 -39 c8 -20 -4 -28 -16 -11 -8 11 -9 8 -5
-12 5 -23 3 -28 -13 -28 -16 0 -19 6 -16 28 2 15 4 30 4 34 2 13 40 4 46 -11z
m2575 -17 c0 -8 -4 -14 -10 -14 -5 0 -10 7 -10 15 0 8 -5 15 -11 15 -5 0 -7 5
-4 10 9 14 35 -7 35 -26z m-2130 16 c0 -5 -2 -10 -4 -10 -3 0 -8 5 -11 10 -3
6 -1 10 4 10 6 0 11 -4 11 -10z m258 -97 c-1 -61 -3 -84 -5 -53 -3 33 -11 62
-21 73 -16 18 -16 20 1 32 9 6 17 22 17 34 0 11 2 21 5 21 3 0 4 -48 3 -107z
m1010 75 c-5 -32 -48 -33 -48 -1 0 18 5 23 26 23 20 0 25 -4 22 -22z m1678 -5
c-8 -8 -36 5 -36 17 0 7 6 7 21 0 11 -7 18 -14 15 -17z m-3322 -45 c-6 -9 -34
-11 -34 -3 0 3 6 12 13 19 12 14 31 0 21 -16z m166 22 c13 -8 12 -10 -4 -10
-13 0 -16 -5 -12 -17 7 -17 6 -17 -10 -1 -9 9 -13 21 -10 27 9 13 16 14 36 1z
m1225 -123 c19 -12 35 -30 35 -39 0 -15 -10 -18 -65 -18 l-65 0 0 93 0 92 30
-53 c17 -28 46 -62 65 -75z m-1595 103 c0 -5 -7 -10 -15 -10 -8 0 -15 5 -15
10 0 6 7 10 15 10 8 0 15 -4 15 -10z m323 -30 c-3 -3 -8 0 -10 7 -2 7 -12 9
-21 6 -15 -6 -15 -5 -3 10 13 16 14 16 26 0 8 -10 11 -20 8 -23z m1637 25 c0
-56 -66 -129 -128 -141 l-32 -6 0 81 0 81 80 0 c65 0 80 -3 80 -15z m150 -71
l0 -86 -42 6 c-24 3 -44 5 -45 5 -1 1 14 27 33 59 19 31 37 67 40 80 11 40 14
24 14 -64z m504 60 c5 -14 4 -15 -9 -4 -17 14 -19 20 -6 20 5 0 12 -7 15 -16z
m-2282 -46 c-7 -7 -12 -8 -12 -2 0 14 12 26 19 19 2 -3 -1 -11 -7 -17z m2478
-18 c6 -11 7 -20 2 -20 -6 0 -12 9 -15 20 -3 11 -3 20 -1 20 2 0 8 -9 14 -20z
m290 10 c0 -5 -5 -10 -11 -10 -5 0 -7 5 -4 10 3 6 8 10 11 10 2 0 4 -4 4 -10z
m-1134 -76 c-3 -9 -20 -14 -45 -14 l-41 0 43 43 42 42 3 -28 c2 -16 1 -35 -2
-43z m1091 44 c-3 -7 -5 -2 -5 12 0 14 2 19 5 13 2 -7 2 -19 0 -25z m-2942 2
c-8 -9 -15 -21 -15 -26 0 -5 -13 -9 -29 -9 -19 0 -27 4 -20 10 5 5 9 17 9 26
0 13 8 17 35 16 31 -1 33 -2 20 -17z m752 -57 c-2 -16 -4 -3 -4 27 0 30 2 43
4 28 2 -16 2 -40 0 -55z m1965 40 c-6 -3 -10 -9 -7 -14 4 -5 -1 -6 -9 -3 -23
9 -19 20 7 21 12 0 16 -1 9 -4z m267 -15 c13 -21 13 -22 -1 -10 -9 7 -23 9
-34 5 -16 -6 -17 -5 -4 10 20 21 23 21 39 -5z m-1429 -18 c12 -8 11 -10 -7
-10 -13 0 -23 5 -23 10 0 13 11 13 30 0z m1150 -15 c0 -8 -4 -15 -8 -15 -5 0
-9 7 -9 15 0 8 4 15 9 15 4 0 8 -7 8 -15z m306 -16 c9 -15 -23 -10 -35 5 -10
12 -8 13 9 9 11 -3 23 -9 26 -14z m-1496 -59 l0 -70 -34 0 c-18 0 -48 3 -65 6
-31 6 -31 7 -31 70 l0 64 65 0 65 0 0 -70z m310 40 c-72 -60 -195 -110 -272
-110 -28 0 -28 0 -28 70 l0 70 168 0 167 -1 -35 -29z m170 -40 c0 -49 -4 -70
-12 -71 -21 -2 -308 -4 -308 -2 0 1 24 12 53 26 28 13 77 45 107 70 50 42 60
46 108 46 l52 1 0 -70z m471 58 c0 -10 2 -10 6 0 2 6 17 12 33 12 23 0 27 -4
23 -20 -3 -11 -9 -17 -14 -14 -5 3 -6 -2 -3 -11 4 -8 0 -22 -7 -31 -13 -16
-21 -44 -12 -44 2 0 14 5 26 11 12 7 19 8 15 4 -4 -5 -3 -14 2 -20 8 -9 4 -14
-15 -19 -27 -7 -54 2 -54 19 0 5 -5 11 -12 14 -8 2 -10 -2 -6 -13 7 -18 25
-17 -267 -17 -90 0 -162 4 -165 9 -3 6 -4 37 -3 71 l4 61 224 0 c172 0 224 -3
225 -12z m500 -23 c5 4 9 -6 9 -20 0 -24 -1 -25 -16 -11 -8 9 -18 16 -20 16
-7 0 38 -64 48 -68 4 -2 8 -8 8 -13 0 -5 -30 -8 -67 -7 -49 1 -56 3 -25 5 23
2 42 8 42 14 0 5 -4 9 -10 9 -5 0 -10 23 -10 51 0 46 1 49 16 35 8 -9 20 -14
25 -11z m39 -36 c0 -10 -4 -19 -10 -19 -5 0 -10 12 -10 26 0 14 4 23 10 19 6
-3 10 -15 10 -26z m-3015 -38 c3 -5 1 -12 -5 -16 -5 -3 -10 1 -10 9 0 18 6 21
15 7z m720 -21 c3 -5 -1 -10 -10 -10 -9 0 -13 5 -10 10 3 6 8 10 10 10 2 0 7
-4 10 -10z m2019 -2 c-3 -4 -20 -8 -37 -7 -24 0 -27 2 -14 8 24 9 57 9 51 -1z
m-2754 -18 c0 -5 -2 -10 -4 -10 -3 0 -8 5 -11 10 -3 6 -1 10 4 10 6 0 11 -4
11 -10z m897 -16 c-3 -3 -12 -4 -19 -1 -8 3 -5 6 6 6 11 1 17 -2 13 -5z m267
-3 c-16 -4 -19 -11 -14 -25 4 -14 9 -16 14 -8 4 7 16 12 27 12 21 0 26 16 7
23 -7 3 33 6 90 6 l103 1 -3 -117 c-2 -93 -6 -117 -18 -120 -13 -4 -13 -3 0 6
13 9 13 11 -2 11 -10 0 -22 -8 -27 -18 -12 -22 -68 -24 -63 -2 3 11 0 11 -12
0 -13 -10 -16 -10 -16 3 0 9 12 18 30 22 17 4 30 13 30 21 0 8 6 15 13 16 6 0
17 2 22 2 6 1 16 5 22 9 21 13 -6 45 -33 39 -17 -3 -24 0 -24 12 0 9 -8 16
-17 16 -13 0 -14 -3 -6 -11 6 -6 9 -17 6 -24 -2 -7 1 -15 9 -18 7 -2 3 -2 -10
0 -17 3 -25 -2 -29 -17 -4 -14 -11 -19 -24 -15 -12 4 -21 -1 -28 -14 -15 -27
-14 -31 7 -24 9 3 14 3 10 -2 -4 -4 -18 -8 -30 -9 -14 -1 -24 -8 -26 -21 -2
-11 -1 -17 3 -13 4 4 14 1 21 -7 8 -8 21 -12 29 -8 9 3 22 0 30 -7 12 -10 15
-10 15 0 0 6 6 10 13 8 6 -3 12 -11 12 -19 0 -9 10 -13 28 -11 18 2 27 -2 27
-12 0 -26 -21 -29 -44 -7 -12 12 -30 21 -39 21 -9 0 -17 5 -17 10 0 6 -7 10
-15 10 -16 0 -21 -15 -7 -23 4 -2 0 -2 -8 1 -8 2 -21 5 -27 5 -7 0 -13 7 -13
14 0 8 -5 11 -10 8 -6 -4 -7 -11 -4 -17 5 -8 1 -9 -11 -5 -9 4 -25 2 -34 -5
-10 -8 -9 -5 3 10 l19 22 -30 0 c-34 0 -63 24 -41 33 7 3 3 6 -9 6 -13 1 -23
4 -23 7 0 15 32 34 59 34 28 0 55 16 28 17 -7 0 -38 3 -69 7 -38 4 -58 3 -58
-4 0 -5 -4 -10 -10 -10 -5 0 -7 7 -4 15 4 10 0 15 -11 15 -10 0 -13 -5 -9 -12
4 -7 3 -8 -5 -4 -9 6 -9 11 -1 21 8 10 5 17 -12 29 -12 9 -17 16 -10 16 7 0
10 5 6 11 -4 8 -9 8 -17 0 -19 -19 -31 -12 -13 8 14 15 22 17 35 10 26 -17 71
5 64 30 -4 15 1 23 18 30 24 10 24 10 -3 10 -18 1 -28 -4 -28 -14 0 -9 -6 -12
-16 -8 -12 4 -13 8 -3 14 8 5 -4 9 -31 12 -25 2 18 4 95 4 77 0 130 -2 119 -6z
m900 2 c-13 -2 -24 -14 -26 -28 -3 -14 -1 -22 3 -19 5 3 9 12 9 20 0 8 7 14
16 14 19 0 47 -27 35 -34 -5 -3 -12 -22 -15 -41 -5 -25 -12 -35 -26 -35 -13 0
-17 -5 -13 -19 7 -27 48 -12 47 17 0 14 5 18 15 15 13 -4 13 -3 2 5 -11 8 -10
14 7 32 17 18 19 26 9 41 -7 11 -15 19 -19 19 -5 0 -8 5 -8 10 0 6 68 10 185
10 158 0 185 -2 185 -15 0 -8 7 -15 15 -15 9 0 12 6 9 15 -5 12 2 15 30 15
l36 0 -21 -21 c-17 -17 -18 -23 -7 -36 11 -14 10 -15 -12 -8 -22 7 -23 6 -11
-9 12 -14 11 -19 -2 -34 -9 -10 -15 -28 -12 -41 2 -13 -2 -24 -10 -28 -19 -7
-19 -38 1 -67 15 -25 5 -44 -17 -31 -6 4 -13 -2 -16 -14 -3 -11 -10 -18 -15
-15 -5 3 -7 13 -4 23 5 14 4 14 -7 -1 -8 -10 -17 -15 -20 -11 -4 3 -7 -3 -7
-15 0 -12 -6 -21 -12 -19 -8 1 -13 -8 -13 -22 0 -18 -6 -25 -22 -26 -13 -1
-24 -4 -26 -6 -2 -2 -11 -17 -20 -32 -10 -15 -22 -25 -27 -22 -5 3 -19 1 -30
-5 -12 -6 -20 -7 -20 -1 0 5 -3 16 -6 25 -4 11 2 19 19 25 27 10 51 44 40 55
-3 3 -1 6 5 6 6 0 9 10 7 22 -3 12 0 27 6 35 8 9 7 14 -4 19 -20 7 -10 40 19
59 13 8 24 13 24 9 0 -4 6 -1 14 5 11 9 15 8 20 -5 4 -10 2 -22 -4 -28 -7 -7
-10 -6 -10 2 0 7 -6 11 -12 9 -14 -2 -38 -22 -38 -31 0 -10 65 7 83 22 9 8 17
11 17 7 0 -5 2 -6 5 -3 3 3 3 13 -1 22 -5 13 -9 14 -20 5 -22 -18 -16 1 11 37
26 34 34 57 13 36 -14 -14 -42 -16 -34 -3 6 9 -22 26 -37 23 -4 -1 -4 10 -1
25 6 22 4 25 -11 20 -13 -5 -16 -3 -11 8 3 8 1 15 -4 15 -12 0 -32 -38 -26
-48 3 -5 -8 -23 -25 -41 -16 -18 -27 -37 -24 -42 4 -5 1 -9 -5 -9 -7 0 -10 -6
-7 -12 2 -7 -8 -21 -22 -30 -14 -10 -20 -18 -12 -18 8 0 11 -3 8 -6 -11 -11
-36 17 -30 33 5 13 3 13 -16 2 -25 -16 -27 -29 -6 -29 11 0 15 -11 13 -44 -1
-34 -4 -43 -16 -39 -11 5 -13 1 -7 -15 4 -15 2 -22 -7 -22 -17 0 -49 -56 -42
-75 4 -8 1 -15 -4 -15 -6 0 -14 10 -17 21 -4 12 -10 18 -14 13 -3 -5 -13 -10
-21 -12 -8 -2 -16 -8 -18 -13 -7 -17 -22 -9 -22 12 0 11 -4 17 -10 14 -5 -3
-10 1 -10 10 0 9 -4 13 -10 10 -5 -3 -10 -1 -10 4 0 6 2 11 4 11 2 0 12 3 22
7 13 5 15 3 9 -8 -7 -12 -6 -12 7 -1 9 7 15 21 13 30 -2 9 -4 19 -4 22 -1 3
-6 -2 -11 -10 -7 -12 -9 -10 -7 7 0 12 4 20 8 17 10 -6 59 58 53 68 -8 13 -34
-3 -32 -20 2 -8 -4 -17 -12 -19 -13 -4 -13 -3 0 6 8 6 10 11 4 11 -6 0 -17 -7
-24 -15 -7 -8 -16 -13 -20 -10 -4 3 -11 -2 -14 -11 -4 -12 -2 -15 9 -10 17 6
19 -2 5 -24 -11 -17 -28 -20 -52 -8 -12 6 -20 3 -28 -12 -6 -11 -7 -20 -3 -20
4 0 1 -5 -7 -10 -10 -6 -20 -4 -30 5 -10 9 -21 11 -29 6 -15 -10 -71 6 -71 19
0 14 27 60 32 55 3 -3 11 3 19 12 13 16 12 17 -3 4 -10 -7 -18 -10 -18 -5 0 5
-11 9 -25 9 -14 0 -25 -3 -25 -7 0 -5 5 -8 10 -8 6 0 10 -5 10 -11 0 -5 -5 -7
-12 -3 -7 5 -9 2 -5 -9 3 -9 0 -18 -9 -21 -20 -8 -19 53 3 84 14 19 26 60 18
60 -8 0 -43 -38 -48 -52 -7 -19 -27 -25 -27 -8 0 5 -7 7 -15 4 -8 -4 -15 -11
-15 -16 0 -6 6 -8 14 -5 10 4 12 0 9 -14 -3 -10 -9 -19 -14 -19 -5 0 -9 -7 -9
-16 0 -10 -5 -14 -15 -10 -11 4 -15 0 -13 -11 2 -11 -6 -19 -22 -24 -14 -4
-18 -8 -10 -8 12 -1 12 -4 -2 -15 -10 -7 -15 -15 -12 -18 2 -3 -6 -3 -19 -1
-14 3 -30 16 -36 29 -9 21 -14 23 -30 14 -33 -17 -35 -11 -7 16 14 15 26 31
26 35 0 18 -18 10 -80 -38 -2 -2 2 -8 10 -13 13 -8 12 -10 -2 -10 -16 0 -18
10 -18 73 0 43 4 67 9 59 6 -11 10 -10 15 3 5 14 9 15 21 5 12 -10 16 -9 21 5
4 9 2 21 -5 28 -13 13 -15 31 -2 23 5 -3 15 2 22 12 13 15 12 16 -3 4 -11 -9
-18 -10 -23 -2 -5 8 -11 8 -21 -1 -7 -6 -12 -15 -9 -19 3 -4 -2 -13 -10 -20
-13 -11 -15 0 -15 89 l0 101 338 -1 c185 -1 327 -4 316 -6z m944 0 c-14 -2
-29 -11 -32 -19 -3 -9 -1 -12 4 -9 6 3 10 2 10 -3 0 -6 -7 -13 -16 -16 -11 -4
-14 -15 -9 -42 8 -52 -2 -74 -31 -74 -14 0 -22 4 -19 10 3 6 1 10 -4 10 -6 0
-11 -7 -11 -15 0 -8 -5 -15 -11 -15 -5 0 -7 5 -3 11 4 7 -1 7 -16 -1 -12 -6
-24 -9 -28 -6 -3 3 0 6 7 6 9 0 9 5 1 21 -8 15 -8 24 0 34 7 8 9 19 5 25 -10
16 20 41 33 28 8 -8 11 -3 9 18 -1 16 -6 32 -12 36 -5 4 26 7 70 6 44 0 68 -3
53 -5z m-2048 -23 c0 -5 -4 -10 -10 -10 -5 0 -10 5 -10 10 0 6 5 10 10 10 6 0
10 -4 10 -10z m1680 0 c0 -5 -5 -10 -11 -10 -5 0 -7 5 -4 10 3 6 8 10 11 10 2
0 4 -4 4 -10z m150 0 c0 -5 -2 -10 -4 -10 -3 0 -8 5 -11 10 -3 6 -1 10 4 10 6
0 11 -4 11 -10z m-2886 -44 c-3 -9 -10 -16 -15 -16 -5 0 -4 9 3 20 14 22 21
20 12 -4z m46 20 c0 -3 -4 -8 -10 -11 -5 -3 -10 -1 -10 4 0 6 5 11 10 11 6 0
10 -2 10 -4z m2780 -33 c0 -8 4 -12 9 -9 16 10 9 -40 -9 -64 -12 -15 -23 -21
-34 -17 -16 7 -16 8 -1 24 15 15 16 18 2 28 -14 10 -13 13 5 24 16 10 17 15 7
27 -10 12 -9 13 5 8 9 -3 16 -13 16 -21z m-2714 -16 c8 3 14 0 14 -7 0 -6 -4
-8 -10 -5 -5 3 -10 0 -10 -7 0 -9 -3 -9 -10 2 -5 8 -9 20 -9 25 0 6 3 5 5 -2
3 -7 12 -9 20 -6z m-116 -7 c0 -5 -5 -10 -11 -10 -5 0 -7 5 -4 10 3 6 8 10 11
10 2 0 4 -4 4 -10z m53 -39 c1 -24 17 -29 17 -6 0 10 7 14 23 11 12 -3 26 -5
31 -5 6 -1 2 -7 -8 -14 -18 -13 -18 -14 0 -14 11 0 22 5 26 11 6 8 8 8 8 0 0
-6 -7 -17 -15 -24 -8 -7 -12 -16 -9 -21 3 -5 0 -9 -6 -9 -7 0 -9 8 -5 19 7 24
-16 23 -45 -1 -20 -18 -28 -9 -25 30 1 12 -2 22 -6 22 -4 0 -7 9 -6 20 2 25
17 10 20 -19z m102 20 c3 -5 1 -12 -5 -16 -5 -3 -10 1 -10 9 0 18 6 21 15 7z
m2475 -1 c0 -5 -2 -10 -4 -10 -3 0 -8 5 -11 10 -3 6 -1 10 4 10 6 0 11 -4 11
-10z m-2622 -12 c-7 -19 -38 -22 -38 -4 0 10 9 16 21 16 12 0 19 -5 17 -12z
m3068 -53 c-15 -15 -16 -15 -16 3 0 24 11 35 23 23 6 -6 4 -16 -7 -26z m-2909
11 c-3 -7 0 -19 6 -26 10 -10 8 -11 -8 -6 -19 7 -19 6 -4 -10 13 -12 15 -24 9
-44 -5 -16 -6 -31 -3 -33 3 -3 -2 -4 -11 -3 -19 3 -34 16 -18 16 17 0 15 26
-4 44 -9 9 -11 16 -4 16 6 0 10 6 8 13 -2 7 4 20 12 29 18 21 24 22 17 4z
m103 -15 c0 -5 -9 -11 -20 -14 -22 -6 -28 8 -7 16 19 8 27 8 27 -2z m130 5 c0
-3 -4 -8 -10 -11 -5 -3 -10 -1 -10 4 0 6 5 11 10 11 6 0 10 -2 10 -4z m1165
-5 c3 -6 -3 -9 -14 -8 -11 0 -17 5 -15 9 7 11 22 10 29 -1z m1186 -8 c13 -16
12 -17 -3 -4 -17 13 -22 21 -14 21 2 0 10 -8 17 -17z m234 7 c3 -5 -1 -10 -9
-10 -8 0 -18 5 -21 10 -3 6 1 10 9 10 8 0 18 -4 21 -10z m200 -10 c-3 -4 -14
-10 -25 -13 -16 -4 -19 -2 -11 7 11 13 43 18 36 6z m-133 -38 c-7 -2 -10 -7
-7 -12 3 -4 -3 -10 -13 -12 -12 -4 -18 1 -19 13 -1 11 2 19 8 19 5 0 9 7 9 16
0 13 2 13 17 -2 13 -13 14 -19 5 -22z m101 9 c15 -6 27 -17 27 -26 0 -8 9 -15
20 -15 11 0 20 -3 20 -7 -1 -19 -19 -34 -36 -32 -11 2 -25 0 -31 -4 -8 -5 -13
-3 -13 7 0 9 -6 13 -14 10 -9 -3 -20 4 -28 18 -15 27 -19 60 -6 52 4 -3 5 -10
2 -16 -4 -7 -2 -8 5 -4 6 4 9 12 6 17 -4 5 -3 14 1 20 4 8 9 8 13 1 4 -6 19
-15 34 -21z m-337 -12 c-3 -18 -2 -37 4 -43 12 -16 1 -56 -15 -56 -7 0 -16 -6
-18 -12 -3 -7 -6 15 -6 50 -1 35 3 61 8 58 5 -3 11 3 14 14 8 33 20 23 13 -11z
m-2591 -12 c1 -19 -2 -23 -11 -16 -20 17 -24 47 -5 44 10 -1 16 -12 16 -28z
m2738 13 c-4 -14 0 -20 11 -20 9 0 16 -4 16 -10 0 -16 -32 -11 -45 7 -11 14
-10 20 4 30 9 7 17 13 18 13 0 0 -1 -9 -4 -20z m-2848 0 c3 -5 2 -10 -4 -10
-5 0 -13 5 -16 10 -3 6 -2 10 4 10 5 0 13 -4 16 -10z m2763 -8 c2 -7 -3 -12
-12 -12 -9 0 -16 7 -16 16 0 17 22 14 28 -4z m-2898 -27 c0 -5 -5 -3 -10 5 -5
8 -10 20 -10 25 0 6 5 3 10 -5 5 -8 10 -19 10 -25z m835 25 c3 -5 1 -10 -4
-10 -6 0 -11 5 -11 10 0 6 2 10 4 10 3 0 8 -4 11 -10z m525 1 c0 -5 -7 -11
-15 -15 -15 -5 -20 5 -8 17 9 10 23 9 23 -2z m120 -1 c0 -5 -5 -10 -11 -10 -5
0 -7 5 -4 10 3 6 8 10 11 10 2 0 4 -4 4 -10z m29 -137 c-1 -82 -4 -138 -6
-125 -2 12 -9 22 -14 22 -6 0 -7 6 -3 13 6 8 3 8 -9 -2 -9 -7 -24 -10 -33 -7
-12 4 -15 2 -10 -9 3 -8 4 -15 2 -15 -3 0 -11 -3 -19 -6 -18 -7 -17 20 1 38
18 18 15 26 -10 30 -13 2 -24 11 -26 22 -3 13 0 16 10 11 7 -4 3 2 -10 12 -20
17 -21 21 -9 31 11 10 21 10 43 1 16 -7 35 -11 42 -10 6 1 12 -3 12 -9 0 -6
-4 -8 -10 -5 -5 3 -10 2 -10 -4 0 -5 4 -11 10 -13 6 -2 3 -15 -6 -33 l-15 -30
24 24 c23 21 26 21 30 4 3 -10 5 13 6 50 0 38 -3 66 -7 63 -4 -2 -9 12 -10 32
-2 28 0 33 8 22 8 -12 10 -9 10 13 0 15 2 27 5 27 3 0 4 -66 4 -147z m817 120
c-10 -10 -19 5 -10 18 6 11 8 11 12 0 2 -7 1 -15 -2 -18z m454 -24 c0 -27 -3
-48 -8 -45 -7 4 -4 96 4 96 2 0 4 -23 4 -51z m-2120 25 c0 -8 -5 -12 -10 -9
-6 4 -8 11 -5 16 9 14 15 11 15 -7z m-630 -4 c0 -5 -4 -10 -10 -10 -5 0 -10 5
-10 10 0 6 5 10 10 10 6 0 10 -4 10 -10z m850 -11 c0 -6 -4 -7 -10 -4 -5 3
-10 11 -10 16 0 6 5 7 10 4 6 -3 10 -11 10 -16z m2504 -8 c-2 -3 -12 3 -22 13
-16 17 -16 18 5 5 12 -7 20 -15 17 -18z m-3054 9 c0 -5 -4 -10 -9 -10 -6 0
-13 5 -16 10 -3 6 1 10 9 10 9 0 16 -4 16 -10z m2756 -5 c9 -8 11 -15 6 -15
-5 0 -15 7 -22 15 -7 8 -9 15 -6 15 4 0 14 -7 22 -15z m-2090 -17 c-4 6 -2 12
3 12 6 0 11 -7 11 -15 0 -9 -9 -15 -25 -15 -18 0 -23 4 -19 15 5 13 9 13 22 3
12 -10 14 -10 8 0z m2014 1 c0 -6 6 -9 14 -6 9 4 12 0 9 -12 -3 -11 2 -21 11
-24 20 -8 21 -37 1 -37 -8 0 -17 0 -20 0 -3 0 -4 3 -2 8 1 4 7 6 12 4 6 -2 7
0 2 4 -4 4 -15 8 -25 9 -12 1 -17 -6 -17 -26 0 -15 3 -25 6 -23 3 1 6 -3 6
-11 0 -8 -3 -12 -7 -10 -4 2 -16 -4 -26 -13 -33 -31 -55 -35 -71 -13 -8 13
-20 18 -30 14 -17 -6 -16 -2 2 67 5 17 4 21 -3 11 -5 -7 -12 -9 -15 -5 -3 5 1
15 9 22 8 7 14 8 14 3 0 -5 9 -12 19 -16 11 -3 18 -12 15 -20 -3 -7 0 -16 7
-20 8 -6 10 1 7 22 -5 33 18 65 25 35 3 -12 8 -8 17 16 11 30 40 45 40 21z
m-1966 -15 c5 -14 4 -15 -9 -4 -17 14 -19 20 -6 20 5 0 12 -7 15 -16z m26 1
c0 -8 -2 -15 -4 -15 -2 0 -6 7 -10 15 -3 8 -1 15 4 15 6 0 10 -7 10 -15z m32
0 c0 -5 -5 -10 -11 -11 -8 -2 -7 -1 0 3 8 4 7 8 -2 15 -11 8 -11 9 -1 6 8 -2
14 -8 14 -13z m2288 5 c0 -5 -2 -10 -4 -10 -3 0 -8 5 -11 10 -3 6 -1 10 4 10
6 0 11 -4 11 -10z m-814 -27 c-7 -7 -26 7 -26 19 0 6 6 6 15 -2 9 -7 13 -15
11 -17z m-1411 7 c3 -5 1 -10 -4 -10 -6 0 -11 5 -11 10 0 6 2 10 4 10 3 0 8
-4 11 -10z m690 -10 c-3 -5 -14 -10 -23 -11 -11 -1 -8 -4 8 -9 14 -4 20 -8 13
-9 -7 -1 -10 -8 -6 -17 4 -11 -1 -22 -12 -30 -25 -18 -36 -18 -29 1 4 8 12 15
20 15 8 0 14 5 14 11 0 6 -8 8 -19 4 -12 -3 -21 0 -25 10 -3 9 -11 13 -17 9
-8 -5 -9 -3 -4 5 5 8 11 9 17 3 7 -7 16 -4 29 9 20 20 45 26 34 9z m190 -9
c-3 -6 -11 -8 -17 -5 -6 4 -5 9 3 15 16 10 23 4 14 -10z m-1035 -21 c-16 -30
-11 -37 9 -13 18 22 19 22 24 3 3 -11 1 -18 -4 -14 -5 3 -9 0 -9 -5 0 -6 7
-11 15 -11 17 0 18 -6 5 -35 -7 -15 -9 -16 -9 -4 -1 20 -23 40 -48 42 -24 2
-67 46 -50 52 20 7 62 11 70 7 4 -2 3 -12 -3 -22z m2175 20 c-3 -5 -12 -10
-18 -10 -7 0 -6 4 3 10 19 12 23 12 15 0z m107 -32 c-6 -25 -22 -12 -22 18 0
20 2 23 13 12 8 -7 12 -20 9 -30z m-2092 17 c10 -13 9 -15 -8 -15 -12 0 -24 5
-27 10 -8 13 -25 13 -25 -1 0 -5 5 -7 10 -4 6 3 10 2 10 -3 0 -14 -28 -23 -36
-11 -20 33 50 56 76 24z m404 -9 c-4 -16 -1 -25 11 -30 9 -3 13 -2 10 3 -3 5
-1 12 4 16 6 3 15 -3 21 -14 8 -16 6 -22 -7 -30 -16 -9 -16 -10 4 -11 17 0 21
5 18 21 -3 16 -1 19 13 14 9 -4 29 -7 43 -6 36 2 56 -23 36 -44 -9 -8 -24 -15
-33 -15 -17 0 -17 1 1 13 14 11 15 16 5 22 -8 5 -11 4 -7 -2 6 -10 -16 -16
-95 -25 -9 -1 -14 -6 -11 -11 3 -5 -4 -4 -16 3 -12 6 -19 15 -16 21 6 8 -8 13
-27 10 -5 0 -9 7 -9 17 -1 9 -5 1 -9 -18 -6 -31 -8 -28 -9 24 -1 51 1 57 12
42 12 -17 14 -17 37 3 31 26 32 26 24 -3z m1173 -23 c-3 -10 -5 -2 -5 17 0 19
2 27 5 18 2 -10 2 -26 0 -35z m-698 -13 c-8 -6 -8 -9 2 -13 9 -3 10 -6 2 -6
-6 -1 -15 4 -18 9 -3 6 -14 10 -23 10 -10 0 -18 8 -19 19 -1 14 3 18 13 14 8
-3 14 1 14 8 1 9 9 4 21 -10 14 -17 16 -26 8 -31z m-106 14 c-6 -16 -16 -11
-19 11 -1 8 4 11 11 8 8 -2 11 -11 8 -19z m535 11 c32 3 32 2 15 -15 -10 -10
-21 -16 -25 -13 -4 2 -5 -3 -2 -11 3 -9 1 -16 -5 -16 -6 0 -11 -5 -11 -12 0
-18 -123 -129 -140 -126 -8 2 -16 12 -18 22 -3 14 0 17 12 13 9 -4 16 -2 16 4
0 6 7 9 15 5 16 -6 65 34 65 54 0 7 7 10 15 6 17 -6 19 7 5 33 -10 19 9 78 20
61 3 -4 20 -6 38 -5z m335 -49 c-3 -12 -6 -29 -5 -38 0 -9 -6 -19 -14 -22 -8
-3 -13 -2 -9 3 3 5 1 11 -4 13 -10 3 -14 33 -12 82 l1 29 25 -23 c18 -17 23
-29 18 -44z m-93 39 c0 -8 -5 -15 -11 -15 -5 0 -8 4 -5 9 4 5 0 12 -6 14 -8 3
-6 6 5 6 9 1 17 -6 17 -14z m-1560 -38 c0 -4 -10 -2 -22 4 -17 9 -23 9 -26 0
-2 -6 -8 -8 -13 -5 -6 4 -6 11 1 19 8 10 16 10 35 1 14 -6 25 -15 25 -19z m43
26 c-7 -2 -21 -2 -30 0 -10 3 -4 5 12 5 17 0 24 -2 18 -5z m2142 -3 c3 -5 1
-10 -4 -10 -6 0 -11 5 -11 10 0 6 2 10 4 10 3 0 8 -4 11 -10z m-665 -9 c0 -6
-4 -13 -10 -16 -5 -3 -10 1 -10 9 0 9 5 16 10 16 6 0 10 -4 10 -9z m-2355 -19
c-3 -3 -11 0 -18 7 -9 10 -8 11 6 5 10 -3 15 -9 12 -12z m755 -6 c0 -10 -34 2
-38 13 -3 10 0 10 17 2 11 -7 21 -13 21 -15z m204 15 c3 -5 -1 -11 -9 -14 -9
-4 -12 -1 -8 9 6 16 10 17 17 5z m531 -11 c3 -5 1 -10 -4 -10 -6 0 -11 5 -11
10 0 6 2 10 4 10 3 0 8 -4 11 -10z m-595 -13 c11 3 20 0 20 -6 0 -6 -11 -11
-24 -11 -26 0 -40 12 -28 24 3 4 8 3 10 -2 2 -6 12 -8 22 -5z m560 3 c0 -5 -2
-10 -4 -10 -3 0 -8 5 -11 10 -3 6 -1 10 4 10 6 0 11 -4 11 -10z m967 -52 c0
-35 -1 -51 -4 -36 -3 20 -9 26 -21 22 -15 -5 -15 -4 1 6 18 12 24 50 6 50 -5
0 -7 5 -4 10 14 23 22 6 22 -52z m-2587 37 c0 -8 -7 -11 -20 -8 -11 3 -20 8
-20 12 0 4 9 7 20 8 11 1 20 -4 20 -12z m52 -7 c-9 -9 -15 -9 -24 0 -9 9 -7
12 12 12 19 0 21 -3 12 -12z m2645 -15 c-3 -3 -11 -2 -17 2 -9 6 -9 10 1 16
14 8 27 -7 16 -18z m-1801 5 c4 4 4 1 0 -6 -5 -7 -14 -11 -22 -8 -8 3 -23 -3
-34 -14 -16 -16 -20 -17 -20 -5 0 8 5 15 10 15 6 0 9 3 9 8 -3 18 3 21 25 12
13 -5 27 -6 32 -2z m564 2 c0 -5 -5 -10 -11 -10 -5 0 -7 5 -4 10 3 6 8 10 11
10 2 0 4 -4 4 -10z m40 0 c0 -5 -5 -10 -11 -10 -5 0 -7 5 -4 10 3 6 8 10 11
10 2 0 4 -4 4 -10z m650 0 c0 -5 -4 -10 -10 -10 -5 0 -10 5 -10 10 0 6 5 10
10 10 6 0 10 -4 10 -10z m612 -5 c0 -5 -5 -11 -11 -13 -6 -2 -11 4 -11 13 0 9
5 15 11 13 6 -2 11 -8 11 -13z m-1646 -4 c-19 -7 -18 -8 5 -15 35 -11 5 -19
-39 -11 l-37 7 25 14 c14 7 34 13 45 13 20 0 20 -1 1 -8z m278 -6 c3 -8 1 -15
-4 -15 -6 0 -10 4 -10 10 0 5 -6 7 -14 4 -8 -3 -14 -14 -13 -24 1 -11 6 -16
16 -12 9 3 12 1 7 -6 -5 -8 -1 -11 11 -10 34 3 64 -2 60 -9 -3 -5 15 -9 39 -9
24 -1 44 3 44 8 0 6 14 8 30 6 34 -5 39 -1 10 10 -20 7 -20 7 0 20 16 10 18 9
14 -3 -4 -8 -2 -15 2 -16 5 0 17 -2 27 -4 9 -2 17 1 17 6 0 5 11 2 26 -7 14
-9 23 -23 20 -30 -3 -8 -1 -14 3 -14 5 0 16 -3 25 -6 11 -4 16 -1 16 10 0 9
-5 15 -11 13 -6 -1 -14 4 -16 11 -4 9 1 10 21 3 20 -8 24 -7 19 4 -3 8 0 15 6
15 6 0 11 -7 11 -15 0 -9 6 -15 13 -14 23 3 37 -1 37 -11 0 -17 -42 -49 -59
-45 -10 2 -18 -3 -18 -10 0 -7 6 -11 14 -8 7 3 13 -2 13 -10 0 -9 3 -22 6 -31
3 -9 1 -16 -5 -16 -6 0 -11 10 -11 23 0 17 -2 19 -9 8 -8 -12 -11 -12 -23 0
-8 8 -13 19 -11 26 2 6 -4 10 -14 9 -21 -3 -27 -53 -6 -53 7 0 13 5 13 10 0 6
3 7 6 4 4 -4 2 -13 -5 -21 -9 -11 -8 -15 5 -20 9 -3 20 -4 25 0 5 3 9 0 9 -6
0 -6 11 -3 25 7 17 12 24 28 25 49 0 35 22 59 45 50 25 -9 18 -36 -10 -36 -14
0 -25 -5 -25 -11 0 -6 7 -8 16 -5 10 4 13 2 8 -6 -5 -8 -2 -9 9 -5 10 3 17 2
17 -2 0 -15 -27 -20 -40 -8 -9 9 -11 8 -8 -8 3 -21 48 -35 48 -15 0 6 4 9 9 6
5 -4 11 -1 13 6 3 9 11 9 35 -1 25 -10 36 -10 54 -1 20 11 21 10 14 -6 -5 -11
-9 -37 -9 -58 -1 -22 -6 -41 -14 -44 -6 -2 -10 -7 -7 -12 3 -4 -4 -10 -15 -13
-20 -5 -26 3 -13 17 4 3 8 16 10 27 3 19 2 19 -21 -3 -13 -13 -22 -26 -20 -29
2 -4 -7 -6 -21 -5 -14 0 -25 6 -25 11 0 6 -5 3 -10 -5 -5 -8 -7 -24 -5 -35 3
-11 2 -14 -1 -7 -3 6 -12 12 -20 12 -8 0 -14 7 -14 15 0 15 -27 10 -45 -9 -51
-54 -88 -118 -50 -86 12 10 15 10 15 -1 0 -8 9 -3 20 11 11 14 17 31 15 38 -3
8 2 20 10 28 13 13 17 13 29 1 17 -17 9 -67 -10 -67 -18 0 -18 9 3 32 15 17
15 18 0 18 -10 0 -17 -5 -17 -11 0 -6 -7 -25 -15 -42 -11 -24 -22 -32 -42 -33
-16 0 -36 -4 -45 -8 -15 -7 -18 -3 -18 23 0 17 4 31 8 31 5 0 8 14 7 30 -1 17
2 30 7 30 4 0 8 5 8 10 0 6 -6 9 -12 8 -24 -5 -15 46 9 57 32 14 35 30 7 30
-15 0 -22 -5 -19 -12 3 -8 -5 -13 -20 -13 -19 0 -23 4 -18 18 5 13 3 14 -6 6
-9 -9 -10 -17 -3 -31 7 -12 7 -25 1 -36 -12 -21 -29 -22 -29 -2 0 8 6 15 13
15 8 0 7 4 -3 10 -22 14 -33 12 -26 -5 3 -8 1 -15 -3 -15 -5 0 -11 7 -15 15
-3 8 -15 15 -26 15 -25 0 -25 -8 -2 -27 16 -14 16 -14 0 -9 -10 3 -18 1 -18
-4 0 -17 21 -22 37 -8 13 10 17 10 20 1 3 -7 11 -13 19 -13 8 0 14 -4 14 -10
0 -14 -13 -13 -29 3 -10 10 -15 8 -26 -7 -9 -12 -21 -17 -35 -13 -11 3 -20 0
-20 -6 0 -6 -3 -7 -7 -4 -3 4 -14 1 -22 -7 -12 -11 -26 -13 -53 -7 -25 6 -39
5 -42 -3 -2 -6 -5 84 -5 199 l-1 211 24 2 c13 1 27 -5 30 -13z m316 5 c0 -5
-4 -10 -10 -10 -5 0 -10 5 -10 10 0 6 5 10 10 10 6 0 10 -4 10 -10z m845 -8
c-3 -3 -11 0 -18 7 -9 10 -8 11 6 5 10 -3 15 -9 12 -12z m-1752 -7 c-3 -9 -8
-14 -10 -11 -3 3 -2 9 2 15 9 16 15 13 8 -4z m147 11 c0 -3 -4 -8 -10 -11 -5
-3 -10 -1 -10 4 0 6 5 11 10 11 6 0 10 -2 10 -4z m40 -31 c5 3 11 1 15 -5 3
-5 2 -10 -3 -10 -6 0 -7 -10 -4 -22 5 -22 5 -22 -12 -5 -10 9 -25 16 -34 16
-15 -1 -15 -2 1 -6 9 -2 17 -9 17 -15 0 -6 -3 -8 -7 -5 -3 4 -12 2 -20 -5 -12
-9 -13 -6 -9 16 4 22 2 26 -10 22 -9 -3 -12 -2 -9 5 4 6 13 8 20 5 7 -2 19 7
26 22 14 25 14 25 17 4 2 -12 7 -20 12 -17z m40 31 c0 -3 -4 -8 -10 -11 -5 -3
-10 -1 -10 4 0 6 5 11 10 11 6 0 10 -2 10 -4z m270 -14 c0 -4 -11 -12 -25 -18
-24 -12 -24 -12 -7 11 15 21 32 24 32 7z m1385 8 c3 -5 -1 -10 -10 -10 -9 0
-13 5 -10 10 3 6 8 10 10 10 2 0 7 -4 10 -10z m115 -5 c7 -9 8 -15 2 -15 -5 0
-12 7 -16 15 -3 8 -4 15 -2 15 2 0 9 -7 16 -15z m-1730 -45 c0 -10 8 -20 19
-23 15 -3 17 0 13 16 -3 13 -1 18 6 13 7 -4 19 -3 29 2 11 7 24 6 38 -4 12 -8
35 -15 51 -17 16 -2 35 -7 42 -11 7 -4 12 -2 12 4 0 7 6 10 14 7 9 -4 17 1 19
11 3 9 5 -82 6 -202 1 -212 -5 -286 -11 -140 -2 49 -6 71 -15 71 -7 0 -13 -9
-13 -20 0 -13 -5 -17 -15 -14 -8 4 -17 2 -21 -4 -3 -6 3 -13 13 -15 38 -10 45
-39 21 -84 -18 -34 -27 -40 -48 -38 -16 2 -25 9 -24 20 1 10 -4 14 -11 11 -21
-8 -11 68 11 84 17 12 17 13 0 13 -9 0 -15 4 -12 9 3 4 -6 6 -19 3 -14 -2 -22
-8 -19 -13 3 -5 -2 -6 -10 -3 -25 9 -19 21 15 33 20 7 36 8 43 2 17 -14 77 26
69 46 -5 13 -3 14 18 3 23 -13 23 -12 9 5 -9 11 -10 16 -2 11 8 -5 12 0 12 15
0 21 -1 22 -20 4 -17 -16 -20 -16 -26 -2 -3 9 -14 14 -25 12 -10 -2 -19 0 -19
6 0 5 -6 9 -14 9 -10 0 -12 7 -9 23 l6 22 -20 -22 c-17 -19 -20 -20 -29 -6 -7
12 -18 14 -42 8 -18 -3 -30 -10 -27 -15 3 -5 0 -12 -6 -16 -8 -4 -9 -3 -5 4 4
7 2 12 -3 12 -6 0 -11 5 -11 10 0 6 7 10 15 10 8 0 15 8 15 17 0 9 7 25 17 35
10 11 12 18 4 18 -6 0 -14 -6 -17 -13 -7 -18 -34 -17 -34 0 0 10 -7 12 -19 8
-14 -4 -21 0 -26 16 -7 20 -9 21 -19 7 -9 -12 -17 -13 -29 -7 -9 6 -17 6 -17
1 0 -4 12 -13 28 -18 22 -8 24 -11 10 -16 -22 -9 -61 22 -50 40 5 7 25 14 45
15 34 2 42 8 38 30 0 4 5 6 12 5 7 -2 11 6 9 19 -2 17 1 21 12 17 9 -3 16 -14
16 -24z m890 20 c0 -5 -4 -10 -10 -10 -5 0 -10 5 -10 10 0 6 5 10 10 10 6 0
10 -4 10 -10z m670 6 c0 -3 -4 -8 -10 -11 -5 -3 -10 -1 -10 4 0 6 5 11 10 11
6 0 10 -2 10 -4z m78 -17 c7 -12 10 -24 7 -27 -4 -4 -11 1 -16 11 -6 9 -14 15
-20 12 -5 -3 -6 1 -3 9 8 21 17 20 32 -5z m-1903 1 c-3 -5 -11 -10 -16 -10 -6
0 -7 5 -4 10 3 6 11 10 16 10 6 0 7 -4 4 -10z m-44 -19 c0 -3 2 -14 4 -23 3
-19 -10 -25 -19 -9 -4 5 0 12 6 14 8 4 7 6 -4 6 -9 1 -18 -5 -20 -11 -3 -7
-16 -13 -31 -13 -14 -1 -23 3 -20 9 4 5 0 7 -8 4 -9 -4 -15 1 -15 11 0 20 27
24 38 7 5 -8 8 -7 8 1 0 7 7 10 15 7 8 -4 15 -1 15 5 0 11 29 4 31 -8z m-516
-1 c-3 -5 -10 -10 -16 -10 -5 0 -9 5 -9 10 0 6 7 10 16 10 8 0 12 -4 9 -10z
m641 -2 c4 -7 4 -10 -1 -6 -4 4 -15 2 -24 -5 -14 -11 -14 -10 -2 6 16 20 18
21 27 5z m1610 3 c-3 -5 1 -12 9 -15 13 -5 13 -9 3 -26 -17 -27 -32 -26 -17 2
10 18 9 20 -5 15 -16 -6 -23 13 -9 26 10 10 25 8 19 -2z m-581 -22 c3 -9 15
-25 26 -35 17 -16 19 -16 13 -1 -4 11 0 19 9 23 25 9 39 -4 27 -27 -8 -13 -7
-25 0 -39 13 -24 50 -27 50 -4 0 12 -3 14 -12 6 -9 -7 -17 -5 -28 6 -13 14
-12 15 2 10 11 -5 22 2 33 19 14 20 19 23 26 12 6 -10 9 -11 9 -1 0 6 5 12 11
12 6 0 8 -7 5 -16 -5 -14 -4 -15 9 -4 10 8 15 9 15 1 0 -6 7 -11 15 -11 8 0
15 4 15 9 0 5 9 11 20 14 11 3 20 1 20 -5 0 -6 11 -8 25 -6 22 5 24 3 13 -11
-32 -42 -53 -61 -69 -61 -9 0 -19 -6 -22 -12 -7 -21 -20 0 -20 32 0 16 -4 30
-8 30 -12 0 -20 -32 -10 -44 16 -19 -54 -53 -73 -37 -12 10 -17 8 -26 -9 -10
-19 -10 -20 7 -12 11 6 25 7 34 1 12 -6 22 -3 34 11 10 11 23 20 29 20 6 -1
-2 -12 -18 -25 -17 -13 -34 -21 -38 -19 -5 3 -14 2 -21 -3 -7 -5 -21 -10 -33
-10 -17 -1 -20 3 -16 23 2 13 8 24 13 24 4 0 7 9 6 19 0 11 -5 17 -9 15 -4 -3
-8 1 -9 8 0 9 -2 10 -5 1 -4 -9 -13 -9 -32 -2 -18 7 -28 7 -30 0 -6 -17 -29
12 -25 30 3 9 0 20 -6 23 -5 4 -7 14 -4 23 5 11 3 14 -6 8 -10 -6 -11 -3 -3
12 13 23 50 25 57 2z m776 2 c0 -3 2 -23 4 -44 2 -21 0 -35 -5 -32 -5 3 -12 1
-15 -5 -5 -8 -11 -7 -21 1 -16 13 -16 13 -32 -16 -9 -16 -11 -9 -10 40 0 33 3
50 5 38 5 -24 18 -30 28 -13 4 6 1 17 -5 25 -9 11 -9 15 -1 15 6 0 11 -4 11
-10 0 -5 4 -10 10 -10 5 0 7 7 4 15 -5 11 -2 13 10 9 9 -3 16 -9 17 -13z
m-2277 -10 c3 -4 -11 -5 -30 -3 -18 2 -32 8 -29 12 5 8 53 1 59 -9z m1540 4
c-4 -8 -7 -15 -9 -15 -2 0 -5 7 -9 15 -3 9 0 15 9 15 9 0 12 -6 9 -15z m111 5
c3 -5 1 -10 -4 -10 -6 0 -11 5 -11 10 0 6 2 10 4 10 3 0 8 -4 11 -10z m35 0
c0 -5 -4 -10 -10 -10 -5 0 -10 5 -10 10 0 6 5 10 10 10 6 0 10 -4 10 -10z
m-1590 -20 c11 -11 16 -20 12 -20 -5 0 -17 9 -27 20 -10 11 -15 20 -12 20 4 0
16 -9 27 -20z m404 7 c3 3 6 2 6 -4 0 -12 -66 -11 -77 2 -5 4 -3 5 4 1 6 -3
14 -2 18 4 4 7 12 7 24 0 10 -5 21 -6 25 -3z m-874 -7 c8 -5 12 -11 10 -14 -3
-2 -14 2 -24 10 -22 15 -10 19 14 4z m2335 -6 c18 -18 50 -22 79 -9 17 7 18 6
12 -11 -5 -10 -9 -26 -9 -34 0 -11 -2 -11 -11 2 -9 16 -12 16 -38 0 -17 -10
-28 -25 -28 -38 0 -19 -5 -22 -27 -19 -16 1 -39 -4 -52 -12 -22 -14 -24 -14
-18 1 4 11 1 16 -11 16 -15 1 -14 3 3 18 12 9 24 25 28 35 3 9 12 16 19 15 7
-2 13 2 13 7 2 13 16 45 20 45 2 0 11 -7 20 -16z m215 -35 c0 -21 -4 -39 -10
-39 -5 0 -10 5 -10 10 0 6 -3 10 -7 10 -5 0 -8 -16 -9 -35 0 -20 4 -31 9 -28
6 3 7 1 3 -5 -4 -7 -4 -18 1 -24 5 -8 10 1 14 27 5 35 6 32 8 -23 1 -43 -2
-61 -10 -57 -6 4 -8 13 -5 20 3 9 -2 13 -14 12 -15 -1 -16 -4 -8 -14 8 -10 7
-12 -3 -8 -8 3 -23 -2 -34 -11 -11 -8 -13 -13 -5 -9 12 5 12 4 -1 -7 -9 -7
-14 -23 -12 -37 3 -20 1 -22 -12 -11 -11 9 -15 9 -15 1 0 -8 -5 -9 -19 -1 -24
12 -42 13 -22 1 17 -11 5 -32 -14 -24 -9 3 -15 -1 -15 -11 0 -9 5 -16 11 -16
18 0 0 -52 -27 -80 -14 -14 -24 -20 -23 -15 1 6 1 19 0 30 -2 19 -2 19 -12 1
-9 -15 -13 -16 -20 -5 -6 10 -9 11 -9 2 0 -20 -17 -15 -23 7 -3 11 -1 20 4 20
14 0 11 28 -5 37 -21 12 -2 51 29 59 14 3 25 11 25 16 0 6 7 8 14 5 10 -4 13
-1 9 8 -3 8 -9 12 -14 9 -5 -3 -9 2 -9 10 0 14 3 14 20 4 11 -7 20 -17 20 -23
0 -5 5 -3 10 5 7 11 10 11 10 2 0 -7 5 -10 10 -7 8 5 7 11 -1 21 -11 14 -10
15 14 18 6 1 11 9 9 19 -2 11 2 15 13 11 18 -7 45 12 45 32 0 8 -8 15 -17 15
-17 1 -17 2 0 6 19 5 23 19 6 25 -7 2 -9 13 -5 26 7 21 8 21 28 3 11 -11 17
-24 13 -30 -3 -6 -1 -11 4 -11 15 0 14 37 0 46 -8 5 -6 10 5 16 11 6 22 6 32
-2 17 -15 17 -10 4 24 -7 20 -6 24 5 19 10 -3 15 -19 15 -44z m-2696 17 l26
-23 -24 4 c-13 3 -26 14 -29 24 -7 24 -3 24 27 -5z m50 -15 c-5 -6 -34 20 -34
30 0 5 8 1 18 -8 10 -10 17 -20 16 -22z m486 10 c1 9 6 7 15 -5 8 -11 15 -14
15 -8 0 7 5 12 10 12 6 0 10 -7 10 -15 0 -8 -4 -15 -9 -15 -5 0 -7 -10 -4 -22
4 -19 3 -20 -6 -8 -6 8 -11 11 -11 5 0 -5 -5 -3 -10 5 -8 13 -10 12 -10 -2 0
-10 -4 -18 -10 -18 -5 0 -10 5 -10 11 0 5 -4 8 -9 4 -6 -3 -15 3 -20 14 -16
29 -14 33 12 26 19 -5 20 -4 5 5 -10 6 -18 15 -18 21 0 5 11 2 25 -7 20 -13
25 -13 25 -3z m117 -3 c-3 -8 -6 -5 -6 6 -1 11 2 17 5 13 3 -3 4 -12 1 -19z
m226 7 c8 -8 17 -12 20 -9 3 3 4 -2 3 -11 -1 -9 -7 -20 -12 -23 -6 -4 -13 -15
-17 -25 -6 -15 -4 -16 13 -7 26 14 27 13 34 -13 4 -17 12 -22 33 -21 15 1 35
-4 43 -10 13 -9 13 -9 3 5 -14 17 -8 29 14 29 7 0 13 -10 13 -21 0 -17 5 -20
25 -17 14 3 28 1 31 -4 3 -4 10 -6 15 -3 5 4 9 -1 9 -9 0 -8 -4 -18 -10 -21
-6 -4 -5 -13 2 -24 6 -10 8 -26 5 -35 -6 -16 -9 -16 -29 -2 -12 9 -30 16 -39
16 -17 0 -52 45 -52 67 0 15 -43 18 -52 3 -3 -5 -1 -10 5 -10 6 0 8 -4 5 -10
-8 -14 -34 11 -28 27 3 7 -1 13 -8 13 -8 0 -25 3 -39 6 -21 5 -22 4 -7 -6 9
-6 17 -21 16 -33 l0 -22 -9 23 c-11 26 -22 30 -13 5 5 -15 3 -14 -10 2 -9 11
-17 15 -17 9 0 -6 -7 -11 -15 -11 -8 0 -12 4 -9 9 3 4 1 8 -3 8 -5 0 -14 -9
-21 -20 -7 -11 -18 -20 -25 -20 -9 0 -9 2 1 9 11 7 11 11 -2 23 -15 15 -12 28
6 28 5 0 6 -4 3 -10 -8 -13 5 -13 25 0 16 10 11 12 -45 14 -11 1 -20 7 -20 13
0 6 -3 14 -7 18 -4 4 -4 13 -1 21 3 8 0 14 -6 14 -6 0 -11 5 -11 12 0 9 3 9
12 0 9 -9 15 -9 27 1 12 9 13 9 7 0 -4 -8 -2 -13 7 -13 16 0 46 -31 44 -45 -1
-5 10 -11 26 -13 34 -4 35 11 1 37 -24 19 -24 26 -1 22 4 0 7 4 7 9 0 6 -4 10
-10 10 -5 0 -10 7 -10 15 0 20 53 20 73 0z m2019 -15 c-6 -15 -11 -19 -16 -12
-4 7 -1 18 6 26 17 19 20 14 10 -14z m-2766 -26 c3 -25 2 -26 -10 -8 -16 23
-18 60 -3 45 6 -6 12 -22 13 -37z m654 25 c0 -6 -4 -7 -10 -4 -5 3 -10 11 -10
16 0 6 5 7 10 4 6 -3 10 -11 10 -16z m-580 -11 c0 -6 -6 -5 -15 2 -8 7 -15 14
-15 16 0 2 7 1 15 -2 8 -4 15 -11 15 -16z m85 -27 c3 -5 1 -13 -5 -16 -8 -5
-7 -12 2 -22 12 -15 11 -15 -10 -2 -12 8 -17 16 -12 17 7 3 7 9 -1 18 -9 11
-8 14 4 14 9 0 18 -4 22 -9z m323 -16 c-3 -3 -9 2 -12 12 -6 14 -5 15 5 6 7
-7 10 -15 7 -18z m2142 4 c0 -6 -4 -7 -10 -4 -5 3 -10 11 -10 16 0 6 5 7 10 4
6 -3 10 -11 10 -16z m-2568 -13 c-2 -9 2 -16 8 -16 5 0 10 5 10 11 0 5 4 8 9
4 10 -5 -18 -65 -30 -65 -4 0 -13 8 -20 17 -12 15 -12 16 4 10 20 -7 21 -3 7
24 -8 14 -7 19 2 19 9 0 9 3 -2 11 -13 9 -13 10 0 6 8 -2 14 -11 12 -21z
m2794 -14 c-10 -10 -29 15 -21 28 6 9 10 8 17 -4 6 -10 7 -20 4 -24z m74 28
c0 -5 -5 -10 -11 -10 -5 0 -7 5 -4 10 3 6 8 10 11 10 2 0 4 -4 4 -10z m-2220
-16 c0 -2 -7 -4 -15 -4 -8 0 -15 4 -15 10 0 5 7 7 15 4 8 -4 15 -8 15 -10z
m150 2 c0 -23 -16 -27 -17 -5 -1 10 2 19 8 19 5 0 9 -6 9 -14z m-40 0 c0 -3
-4 -8 -10 -11 -5 -3 -10 -1 -10 4 0 6 5 11 10 11 6 0 10 -2 10 -4z m-438 -31
c3 -14 1 -25 -3 -25 -5 0 -9 11 -9 25 0 14 2 25 4 25 2 0 6 -11 8 -25z m2285
-2 c-12 -27 -37 -31 -37 -5 0 24 7 31 30 29 15 -1 16 -5 7 -24z m-2542 7 c3
-5 1 -10 -4 -10 -6 0 -11 5 -11 10 0 6 2 10 4 10 3 0 8 -4 11 -10z m975 6 c0
-2 -7 -9 -15 -16 -13 -11 -14 -10 -9 4 5 14 24 23 24 12z m1010 0 c0 -2 -7 -7
-16 -10 -8 -3 -12 -2 -9 4 6 10 25 14 25 6z m132 -18 c-7 -7 -12 -8 -12 -2 0
14 12 26 19 19 2 -3 -1 -11 -7 -17z m68 12 c0 -5 -5 -10 -11 -10 -5 0 -7 5 -4
10 3 6 8 10 11 10 2 0 4 -4 4 -10z m-1270 -14 c0 -3 -4 -8 -10 -11 -5 -3 -10
-1 -10 4 0 6 5 11 10 11 6 0 10 -2 10 -4z m1305 -6 c3 -5 2 -10 -4 -10 -5 0
-13 5 -16 10 -3 6 -2 10 4 10 5 0 13 -4 16 -10z m477 -22 c-7 -7 -12 -8 -12
-2 0 14 12 26 19 19 2 -3 -1 -11 -7 -17z m-2222 -14 c0 -8 -5 -12 -10 -9 -6 4
-8 11 -5 16 9 14 15 11 15 -7z m256 -1 c7 -10 14 -26 14 -36 0 -15 -2 -16 -14
-5 -8 7 -12 16 -10 20 2 4 0 9 -6 13 -11 7 -14 25 -4 25 4 0 13 -8 20 -17z
m1438 11 c9 -3 16 -15 16 -26 0 -13 -5 -18 -14 -15 -10 4 -14 0 -11 -13 5 -24
-6 -32 -25 -19 -10 6 -11 12 -5 17 14 10 17 32 5 32 -6 0 -5 6 2 15 16 17 13
16 32 9z m-1489 -32 c-3 -3 -11 0 -18 7 -9 10 -8 11 6 5 10 -3 15 -9 12 -12z
m345 -7 c0 -8 -4 -15 -9 -15 -5 0 -11 7 -15 15 -3 9 0 15 9 15 8 0 15 -7 15
-15z m1044 -10 c-4 -9 0 -15 8 -15 7 0 23 -7 34 -15 21 -14 21 -15 4 -66 -18
-53 -31 -66 -69 -72 -11 -2 -24 -7 -28 -12 -5 -4 -2 -5 5 -1 14 8 17 -10 2
-19 -5 -3 -10 -11 -10 -16 0 -6 5 -7 10 -4 6 3 10 1 10 -5 0 -22 -25 -3 -30
23 -4 20 -9 24 -19 18 -8 -5 -20 -7 -27 -4 -15 6 -28 -13 -14 -22 5 -3 10 -12
10 -18 0 -7 -7 -3 -15 8 -13 16 -20 18 -44 8 -21 -8 -32 -8 -40 0 -15 15 -14
37 2 37 6 0 4 5 -5 11 -10 5 -18 15 -18 20 0 6 5 7 11 3 8 -5 10 1 7 20 -4 19
0 29 13 36 20 11 40 -7 21 -19 -7 -4 -8 -12 -2 -21 6 -10 10 -11 10 -3 0 8 7
10 18 6 15 -6 15 -5 3 10 -11 14 -11 20 0 33 19 23 51 33 72 22 16 -8 18 -7
12 13 -6 19 -4 21 19 17 21 -4 26 -2 22 9 -8 19 1 33 19 33 9 0 12 -6 9 -15z
m-1534 1 c0 -3 -4 -8 -10 -11 -5 -3 -10 -1 -10 4 0 6 5 11 10 11 6 0 10 -2 10
-4z m80 -14 c32 2 48 -3 53 -16 4 -11 -2 -12 -29 -6 -19 4 -34 6 -34 4 0 -3
-6 1 -14 8 -8 7 -12 17 -9 22 3 4 8 3 12 -2 3 -6 13 -10 21 -10z m-185 -13
c-4 -5 -1 -9 4 -9 6 0 11 -11 11 -24 0 -18 -7 -25 -26 -29 -16 -3 -28 0 -31 9
-3 9 -13 12 -28 8 -13 -3 -26 0 -30 7 -6 9 -2 11 13 7 17 -5 22 -2 22 12 0 19
25 34 41 24 5 -3 9 0 9 6 0 6 5 8 10 5 6 -4 8 -11 5 -16z m65 11 c0 -5 -7 -10
-15 -10 -8 0 -15 5 -15 10 0 6 7 10 15 10 8 0 15 -4 15 -10z m-386 -13 c-3 -8
-11 -14 -19 -14 -18 0 -20 13 -2 20 21 9 27 7 21 -6z m1351 3 c3 -5 1 -10 -4
-10 -6 0 -11 5 -11 10 0 6 2 10 4 10 3 0 8 -4 11 -10z m-46 -17 c-2 -26 -15
-42 -28 -34 -17 11 -7 41 14 41 8 0 15 -3 14 -7z m-1459 -12 c0 -12 -20 -25
-27 -18 -7 7 6 27 18 27 5 0 9 -4 9 -9z m1892 -11 c-41 -25 -51 -25 -26 -1 10
11 28 20 39 20 15 1 12 -4 -13 -19z m-1376 -18 c-17 -16 -18 -16 -5 5 7 12 15
20 18 17 3 -2 -3 -12 -13 -22z m74 18 c0 -5 -5 -10 -11 -10 -5 0 -7 5 -4 10 3
6 8 10 11 10 2 0 4 -4 4 -10z m375 -1 c-4 -6 -13 -8 -21 -5 -8 3 -14 1 -14 -3
0 -5 -10 -6 -22 -3 -23 6 -23 6 2 13 39 11 62 10 55 -2z m453 -15 c9 -18 9
-23 1 -18 -6 3 -15 1 -19 -6 -6 -10 -13 -9 -31 4 -13 9 -18 16 -11 16 6 0 12
7 12 15 0 25 36 17 48 -11z m-1369 3 c13 4 13 3 2 -5 -7 -5 -11 -14 -7 -20 4
-7 -7 -10 -29 -9 -40 2 -41 4 -18 29 10 12 20 15 26 9 5 -5 17 -7 26 -4z
m1011 3 c0 -5 -5 -10 -11 -10 -5 0 -7 5 -4 10 3 6 8 10 11 10 2 0 4 -4 4 -10z
m-610 -57 c3 -4 -3 -3 -12 0 -19 7 -20 4 -22 -62 -1 -20 -7 -36 -15 -39 -10
-3 -12 0 -8 11 5 13 2 15 -18 7 -16 -6 -25 -6 -25 1 0 5 7 12 15 15 12 5 10
10 -8 26 -17 16 -18 19 -4 14 10 -3 15 -2 12 4 -3 5 -1 19 5 30 9 17 8 20 -7
20 -25 0 -45 -14 -41 -30 3 -12 -17 -20 -82 -34 -15 -3 -40 16 -40 30 0 4 3 4
7 1 3 -4 12 -2 20 4 8 8 13 8 13 1 0 -6 -6 -13 -12 -16 -7 -3 -2 -3 11 0 13 3
31 12 40 20 9 8 21 15 26 15 6 1 18 7 29 14 15 11 25 10 64 -6 26 -11 49 -23
52 -26z m224 31 c8 -21 -1 -34 -25 -34 -23 0 -25 15 -3 24 8 3 12 10 9 16 -3
5 -2 10 3 10 6 0 13 -7 16 -16z m215 -15 c-9 -5 -15 -4 -18 2 -2 6 3 15 10 20
9 5 15 4 18 -2 2 -6 -3 -15 -10 -20z m426 21 c3 -5 1 -10 -4 -10 -6 0 -11 5
-11 10 0 6 2 10 4 10 3 0 8 -4 11 -10z m-1445 -10 c0 -5 -2 -10 -4 -10 -3 0
-8 5 -11 10 -3 6 -1 10 4 10 6 0 11 -4 11 -10z m751 -26 c-8 -29 -8 -29 -15
-5 -6 16 -4 26 5 32 18 11 20 8 10 -27z m899 12 c0 -2 -8 -10 -17 -17 -16 -13
-17 -12 -4 4 13 16 21 21 21 13z m-817 -41 c9 -23 -11 -28 -23 -5 -8 16 -8 20
4 20 7 0 16 -7 19 -15z m597 5 c0 -5 -5 -10 -11 -10 -5 0 -7 5 -4 10 3 6 8 10
11 10 2 0 4 -4 4 -10z m220 0 c0 -5 -8 -10 -17 -10 -15 0 -16 2 -3 10 19 12
20 12 20 0z m-1204 -27 c-2 -9 -8 -19 -14 -21 -8 -2 -10 13 -3 36 1 1 5 2 10
2 5 0 8 -8 7 -17z m1448 5 c-4 -7 -3 -8 4 -4 7 4 22 0 34 -8 20 -14 24 -14 39
0 11 10 19 12 24 5 3 -6 -1 -11 -9 -11 -10 0 -13 -6 -9 -15 3 -10 0 -15 -8
-13 -8 2 -13 -3 -11 -10 1 -7 -8 -16 -20 -20 -30 -10 -279 1 -255 11 11 4 24
4 30 0 7 -3 9 -3 5 2 -4 4 23 19 60 32 53 19 72 21 91 13 20 -9 22 -9 13 3
-12 14 -7 27 10 27 5 0 6 -5 2 -12z m-1484 -6 c0 -5 -7 -9 -15 -9 -8 0 -12 4
-9 9 3 4 9 8 15 8 5 0 9 -4 9 -8z m471 -10 c-7 -2 -18 1 -23 6 -8 8 -4 9 13 5
13 -4 18 -8 10 -11z m-101 -6 c0 -2 -7 -6 -15 -10 -8 -3 -15 -1 -15 4 0 6 7
10 15 10 8 0 15 -2 15 -4z m-365 -16 c3 -5 13 -7 23 -4 15 5 14 4 -2 -10 -17
-14 -14 -15 45 -19 35 -2 12 -3 -51 -4 -74 0 -100 2 -73 6 40 7 70 21 45 21
-7 0 -12 5 -12 10 0 13 17 13 25 0z m1615 -10 c0 -5 -5 -10 -11 -10 -5 0 -7 5
-4 10 3 6 8 10 11 10 2 0 4 -4 4 -10z m-1344 -13 c4 -4 30 -7 58 -8 29 0 44
-3 34 -7 -9 -4 -50 -5 -90 -3 -40 3 -63 6 -50 9 12 2 20 7 17 12 -6 10 21 7
31 -3z m421 7 c-3 -3 -12 -4 -19 -1 -8 3 -5 6 6 6 11 1 17 -2 13 -5z m151 -8
c3 -3 -24 -5 -59 -5 -51 1 -57 3 -29 8 38 7 79 6 88 -3z m-965 -13 c-13 -2
-35 -2 -50 0 -16 2 -5 4 22 4 28 0 40 -2 28 -4z m1760 0 c-7 -2 -19 -2 -25 0
-7 3 -2 5 12 5 14 0 19 -2 13 -5z m-1736 -29 c-3 -3 -12 -4 -19 -1 -8 3 -5 6
6 6 11 1 17 -2 13 -5z m142 2 c-7 -8 -118 -10 -126 -3 -3 4 24 7 62 7 38 0 66
-2 64 -4z m84 -3 c-7 -2 -19 -2 -25 0 -7 3 -2 5 12 5 14 0 19 -2 13 -5z m293
-20 c-8 -16 -28 -38 -45 -51 -17 -13 -29 -27 -26 -32 3 -6 0 -7 -7 -5 -20 8
-39 43 -28 50 6 4 8 11 5 16 -4 5 -14 2 -23 -7 -15 -15 -16 -15 -22 2 -4 11
-12 20 -19 20 -6 1 -18 2 -27 3 -9 0 -12 6 -8 13 7 11 5 11 -46 -10 -13 -5
-13 -4 0 11 12 13 37 16 138 17 l123 0 -15 -27z m803 10 c-10 -11 -57 -11 -89
0 -8 3 -22 8 -30 11 -8 3 17 4 57 3 56 -1 70 -4 62 -14z m122 -14 c-14 -23
-17 -38 -11 -60 6 -22 5 -29 -5 -29 -7 0 -15 -7 -19 -15 -6 -17 -36 -21 -36
-5 0 6 6 10 14 10 8 0 15 8 15 18 0 35 6 57 21 70 9 8 9 11 2 7 -7 -4 -21 0
-30 8 -9 8 -24 17 -32 20 -8 3 11 6 42 6 l58 1 -19 -31z m101 24 c-6 -2 -10
-9 -6 -14 8 -13 -7 -11 -36 6 -25 14 -25 14 15 14 22 0 34 -3 27 -6z m141 -8
c-3 -9 -8 -14 -10 -11 -3 3 -2 9 2 15 9 16 15 13 8 -4z m63 6 c-3 -5 -15 -7
-26 -4 -28 7 -25 13 6 13 14 0 23 -4 20 -9z m117 2 c-7 -2 -19 -2 -25 0 -7 3
-2 5 12 5 14 0 19 -2 13 -5z m-475 -31 c2 -7 -2 -10 -12 -6 -9 3 -16 11 -16
16 0 13 23 5 28 -10z m332 9 c0 -6 -4 -13 -10 -16 -5 -3 -10 1 -10 9 0 9 5 16
10 16 6 0 10 -4 10 -9z m-120 -43 c0 -19 -16 -5 -17 14 -2 18 0 20 7 8 5 -8
10 -18 10 -22z m-946 1 c-3 -5 -10 -7 -15 -3 -5 3 -7 10 -3 15 3 5 10 7 15 3
5 -3 7 -10 3 -15z m721 11 c3 -5 2 -10 -4 -10 -5 0 -13 5 -16 10 -3 6 -2 10 4
10 5 0 13 -4 16 -10z m175 -10 c0 -5 -5 -10 -11 -10 -5 0 -7 5 -4 10 3 6 8 10
11 10 2 0 4 -4 4 -10z m-1195 -17 c-2 -10 -4 -20 -4 -23 -1 -3 -5 2 -11 10 -6
9 -5 17 3 22 16 10 16 10 12 -9z m890 7 c-3 -5 -11 -10 -16 -10 -6 0 -7 5 -4
10 3 6 11 10 16 10 6 0 7 -4 4 -10z m545 2 c0 -13 -12 -22 -22 -16 -10 6 -1
24 13 24 5 0 9 -4 9 -8z m-1386 -23 c-3 -5 -13 -9 -22 -8 -11 0 -12 2 -4 6 6
2 10 9 7 14 -4 5 1 6 9 3 9 -3 13 -10 10 -15z m606 17 c0 -3 -4 -8 -10 -11 -5
-3 -10 -1 -10 4 0 6 5 11 10 11 6 0 10 -2 10 -4z m370 -15 c-15 -28 -26 -33
-39 -17 -10 11 -8 17 6 25 30 18 45 14 33 -8z m618 -20 c-4 -32 -38 -43 -38
-13 0 33 11 51 26 45 9 -3 14 -16 12 -32z m-1525 -6 c-7 -21 -12 -19 -10 4 0
11 5 18 9 15 4 -3 5 -11 1 -19z m-493 5 c0 -5 -2 -10 -4 -10 -3 0 -8 5 -11 10
-3 6 -1 10 4 10 6 0 11 -4 11 -10z m291 -33 c-10 -9 -11 -8 -5 6 3 10 9 15 12
12 3 -3 0 -11 -7 -18z m-31 3 c0 -5 -5 -10 -11 -10 -5 0 -7 5 -4 10 3 6 8 10
11 10 2 0 4 -4 4 -10z m1070 0 c0 -5 -4 -10 -9 -10 -6 0 -13 5 -16 10 -3 6 1
10 9 10 9 0 16 -4 16 -10z"/>
<path d="M1200 3291 c0 -5 5 -13 10 -16 6 -3 10 -2 10 4 0 5 -4 13 -10 16 -5
3 -10 2 -10 -4z"/>
<path d="M1517 3279 c4 -13 8 -18 11 -10 2 7 -1 18 -6 23 -8 8 -9 4 -5 -13z"/>
<path d="M1556 3291 c-15 -6 -16 -10 -7 -16 11 -6 11 -9 0 -16 -11 -7 -11 -9
-1 -9 7 0 15 7 18 15 4 8 9 13 13 10 4 -2 8 2 8 10 0 17 -3 17 -31 6z"/>
<path d="M1511 3240 c-1 -17 35 -44 43 -32 7 12 -11 35 -22 28 -6 -3 -13 0
-15 6 -4 9 -6 8 -6 -2z"/>
<path d="M1305 3190 c-3 -5 -1 -10 4 -10 6 0 11 5 11 10 0 6 -2 10 -4 10 -3 0
-8 -4 -11 -10z"/>
<path d="M1100 3091 c0 -6 4 -12 8 -15 5 -3 9 1 9 9 0 8 -4 15 -9 15 -4 0 -8
-4 -8 -9z"/>
<path d="M1245 3060 c3 -5 8 -10 11 -10 2 0 4 5 4 10 0 6 -5 10 -11 10 -5 0
-7 -4 -4 -10z"/>
<path d="M2067 3103 c-4 -3 -7 -11 -7 -17 0 -6 5 -5 12 2 6 6 9 14 7 17 -3 3
-9 2 -12 -2z"/>
<path d="M3280 2982 c0 -6 -12 -12 -27 -14 -14 -2 -28 -10 -31 -18 -4 -12 -2
-13 9 -2 7 6 21 12 30 12 19 0 35 17 25 27 -3 4 -6 1 -6 -5z"/>
<path d="M3365 2920 c6 -29 13 -36 25 -24 7 7 4 16 -9 28 -20 18 -20 18 -16
-4z"/>
<path d="M3250 2860 c0 -5 5 -10 10 -10 6 0 10 5 10 10 0 6 -4 10 -10 10 -5 0
-10 -4 -10 -10z"/>
<path d="M3290 2826 c0 -10 33 -36 46 -36 11 0 10 4 -3 20 -15 18 -43 28 -43
16z"/>
<path d="M2966 2955 c3 -8 10 -13 14 -10 5 3 11 -1 13 -7 4 -10 6 -10 6 -1 1
7 -8 17 -19 23 -16 9 -18 8 -14 -5z"/>
<path d="M2890 2940 c0 -5 5 -10 11 -10 5 0 7 5 4 10 -3 6 -8 10 -11 10 -2 0
-4 -4 -4 -10z"/>
<path d="M2071 2954 c0 -11 3 -14 6 -6 3 7 2 16 -1 19 -3 4 -6 -2 -5 -13z"/>
<path d="M780 2733 c8 -3 19 -11 23 -17 6 -7 7 -6 4 4 -2 8 -12 16 -23 17 -13
2 -15 1 -4 -4z"/>
<path d="M2213 2663 c-18 -6 -16 -40 2 -47 17 -6 20 5 4 21 -8 8 -7 13 2 18 8
5 10 4 5 -3 -4 -7 -2 -12 3 -12 13 0 15 17 4 23 -5 2 -14 2 -20 0z"/>
<path d="M1875 2590 c-3 -5 1 -10 10 -10 9 0 13 5 10 10 -3 6 -8 10 -10 10 -2
0 -7 -4 -10 -10z"/>
<path d="M1911 2586 c-6 -7 -8 -21 -5 -31 6 -15 9 -15 20 6 7 13 13 27 14 32
0 12 -17 8 -29 -7z"/>
<path d="M1856 2553 c-4 -9 -2 -20 4 -25 5 -4 8 -5 5 -1 -3 3 2 15 12 25 14
16 14 18 1 18 -9 0 -19 -8 -22 -17z"/>
<path d="M1940 2524 c0 -8 5 -12 10 -9 6 4 8 11 5 16 -9 14 -15 11 -15 -7z"/>
<path d="M1800 2490 c0 -11 2 -20 4 -20 2 0 6 9 9 20 3 11 1 20 -4 20 -5 0 -9
-9 -9 -20z"/>
<path d="M1915 2500 c-3 -5 -1 -10 4 -10 6 0 11 5 11 10 0 6 -2 10 -4 10 -3 0
-8 -4 -11 -10z"/>
<path d="M1487 2445 c-9 -19 -12 -35 -7 -35 6 0 10 5 10 10 0 6 6 10 13 10 7
0 13 9 14 20 3 34 -13 31 -30 -5z"/>
<path d="M1740 2442 c0 -4 5 -14 10 -22 9 -13 10 -13 10 0 0 12 2 12 9 1 5 -7
11 -9 14 -4 4 6 -5 15 -18 21 -14 7 -25 8 -25 4z"/>
<path d="M1350 2389 c0 -5 5 -7 10 -4 6 3 10 8 10 11 0 2 -4 4 -10 4 -5 0 -10
-5 -10 -11z"/>
<path d="M1511 2376 c-7 -8 -8 -17 -3 -20 6 -3 12 3 15 14 6 24 4 25 -12 6z"/>
<path d="M1417 2361 c-4 -17 -3 -21 5 -13 5 5 8 16 6 23 -3 8 -7 3 -11 -10z"/>
<path d="M1385 2322 c0 -20 5 -29 15 -28 8 1 16 -9 18 -21 2 -13 10 -23 18
-23 12 0 12 4 -2 25 -8 13 -13 29 -9 35 3 5 1 10 -6 10 -6 0 -17 7 -23 15 -9
13 -11 10 -11 -13z"/>
<path d="M1210 2321 c0 -5 5 -13 10 -16 6 -3 10 -2 10 4 0 5 -4 13 -10 16 -5
3 -10 2 -10 -4z"/>
<path d="M1185 2309 c-4 -6 -5 -12 -2 -15 2 -3 7 2 10 11 7 17 1 20 -8 4z"/>
<path d="M1501 2301 c-7 -5 -12 -14 -10 -20 2 -6 10 -2 17 9 14 22 13 23 -7
11z"/>
<path d="M1995 2300 c3 -5 8 -10 11 -10 2 0 4 5 4 10 0 6 -5 10 -11 10 -5 0
-7 -4 -4 -10z"/>
<path d="M1370 2264 c0 -8 5 -12 10 -9 6 4 8 11 5 16 -9 14 -15 11 -15 -7z"/>
<path d="M1180 2260 c0 -5 5 -10 11 -10 5 0 7 5 4 10 -3 6 -8 10 -11 10 -2 0
-4 -4 -4 -10z"/>
<path d="M1790 2260 c-13 -8 -12 -10 3 -10 9 0 17 5 17 10 0 12 -1 12 -20 0z"/>
<path d="M2221 2536 c-8 -9 -8 -16 -2 -20 6 -4 15 3 21 14 12 23 -2 27 -19 6z"/>
<path d="M2225 2300 c3 -5 8 -10 11 -10 2 0 4 5 4 10 0 6 -5 10 -11 10 -5 0
-7 -4 -4 -10z"/>
<path d="M2275 2280 c3 -5 10 -10 16 -10 5 0 9 5 9 10 0 6 -7 10 -16 10 -8 0
-12 -4 -9 -10z"/>
<path d="M2317 2263 c-3 -5 6 -9 19 -9 13 -1 21 2 18 7 -6 11 -31 12 -37 2z"/>
<path d="M1188 2203 c7 -3 16 -2 19 1 4 3 -2 6 -13 5 -11 0 -14 -3 -6 -6z"/>
<path d="M1364 2193 c-11 -25 -13 -53 -3 -47 4 2 6 11 3 18 -3 8 5 21 18 30
17 12 18 16 6 16 -9 0 -19 -8 -24 -17z"/>
<path d="M1417 2203 c-10 -15 1 -40 20 -47 12 -5 13 -3 5 6 -5 7 -12 22 -14
33 -2 13 -6 16 -11 8z"/>
<path d="M1435 2130 c3 -5 8 -10 11 -10 2 0 4 5 4 10 0 6 -5 10 -11 10 -5 0
-7 -4 -4 -10z"/>
<path d="M2425 2169 c-10 -15 -2 -19 24 -12 17 4 19 8 9 14 -18 12 -26 11 -33
-2z"/>
<path d="M2640 2150 c0 -6 7 -10 15 -10 8 0 15 2 15 4 0 2 -7 6 -15 10 -8 3
-15 1 -15 -4z"/>
<path d="M2700 2151 c0 -5 8 -11 18 -15 9 -3 23 -9 30 -12 8 -4 6 3 -4 15 -19
21 -44 28 -44 12z"/>
<path d="M2680 2130 c0 -5 5 -10 11 -10 5 0 7 5 4 10 -3 6 -8 10 -11 10 -2 0
-4 -4 -4 -10z"/>
<path d="M2695 2060 c-3 -6 1 -7 9 -4 18 7 21 14 7 14 -6 0 -13 -4 -16 -10z"/>
<path d="M2760 2016 c0 -2 7 -7 16 -10 8 -3 12 -2 9 4 -6 10 -25 14 -25 6z"/>
<path d="M2903 2121 c0 -11 5 -18 9 -15 4 3 5 11 1 19 -7 21 -12 19 -10 -4z"/>
<path d="M2950 2025 c0 -2 10 -10 23 -16 20 -11 21 -11 8 4 -13 16 -31 23 -31
12z"/>
<path d="M2865 1960 c10 -11 23 -20 28 -20 6 0 1 9 -11 20 -12 11 -24 20 -28
20 -4 0 1 -9 11 -20z"/>
<path d="M2964 1841 c4 -7 2 -18 -4 -26 -9 -10 -9 -19 -1 -32 9 -13 11 -14 10
-3 -3 30 1 41 12 34 7 -4 10 1 7 11 -1 10 -9 20 -17 23 -9 3 -11 0 -7 -7z"/>
<path d="M2360 1950 c0 -5 5 -10 11 -10 5 0 7 5 4 10 -3 6 -8 10 -11 10 -2 0
-4 -4 -4 -10z"/>
<path d="M2324 1925 c17 -13 17 -15 2 -31 -9 -9 -14 -19 -10 -23 4 -3 9 0 11
7 5 14 33 16 33 2 0 -5 8 -9 18 -7 9 1 17 7 17 12 0 6 -3 9 -7 8 -4 -2 -19 8
-32 22 -14 14 -31 25 -38 25 -8 -1 -6 -6 6 -15z"/>
<path d="M2445 1919 c-4 -5 1 -19 10 -29 9 -10 14 -24 9 -31 -4 -8 -3 -10 4
-5 6 4 23 -1 37 -10 22 -15 25 -15 25 0 0 9 -6 13 -13 10 -17 -6 -32 12 -41
49 -7 28 -20 35 -31 16z"/>
<path d="M2416 1844 c-3 -9 -1 -12 4 -9 6 3 13 -1 16 -9 3 -9 13 -16 20 -16
11 0 12 4 5 19 -14 25 -38 33 -45 15z"/>
<path d="M2360 1840 c0 -5 6 -10 14 -10 8 0 18 5 21 10 3 6 -3 10 -14 10 -12
0 -21 -4 -21 -10z"/>
<path d="M2424 1758 c1 -29 5 -37 24 -41 27 -5 28 7 3 32 -10 10 -21 25 -24
32 -3 8 -4 -3 -3 -23z"/>
<path d="M2479 1698 c-11 -8 -10 -9 3 -5 11 4 18 -2 23 -21 6 -26 7 -26 20 -8
8 10 12 22 10 26 -8 13 -42 18 -56 8z"/>
<path d="M2603 1665 c0 -8 4 -15 9 -15 4 0 8 4 8 9 0 6 -4 12 -8 15 -5 3 -9
-1 -9 -9z"/>
<path d="M1318 1670 c-5 -15 18 -39 37 -39 6 0 3 5 -6 12 -9 7 -18 19 -21 27
-4 13 -5 13 -10 0z"/>
<path d="M1275 1619 c4 -6 1 -9 -6 -8 -8 2 -27 -4 -44 -13 l-30 -17 32 2 c18
1 33 6 33 10 0 5 5 5 10 2 6 -3 10 -14 10 -23 0 -12 -3 -13 -8 -5 -8 13 -28 4
-27 -12 2 -25 26 -53 42 -49 32 9 21 124 -12 124 -3 0 -3 -5 0 -11z"/>
<path d="M1317 1570 c-3 -11 -2 -20 3 -20 12 0 21 28 11 35 -5 2 -11 -4 -14
-15z"/>
<path d="M1200 1550 c0 -5 5 -10 11 -10 5 0 7 5 4 10 -3 6 -8 10 -11 10 -2 0
-4 -4 -4 -10z"/>
<path d="M1431 1374 c0 -11 3 -14 6 -6 3 7 2 16 -1 19 -3 4 -6 -2 -5 -13z"/>
<path d="M995 1819 c-4 -6 -5 -12 -2 -15 2 -3 7 2 10 11 7 17 1 20 -8 4z"/>
<path d="M971 1593 c-1 -6 -11 -13 -23 -15 -18 -2 -20 -5 -7 -10 21 -8 43 6
36 23 -3 9 -6 9 -6 2z"/>
<path d="M995 1560 c3 -5 8 -10 11 -10 2 0 4 5 4 10 0 6 -5 10 -11 10 -5 0 -7
-4 -4 -10z"/>
<path d="M1040 1490 c-8 -5 -11 -12 -7 -16 4 -4 13 -2 19 4 6 6 10 14 7 16 -2
3 -11 1 -19 -4z"/>
<path d="M985 1440 c3 -5 8 -10 11 -10 2 0 4 5 4 10 0 6 -5 10 -11 10 -5 0 -7
-4 -4 -10z"/>
<path d="M1035 1420 c3 -5 8 -10 11 -10 2 0 4 5 4 10 0 6 -5 10 -11 10 -5 0
-7 -4 -4 -10z"/>
<path d="M1127 1424 c-3 -4 -21 -10 -39 -15 -32 -8 -32 -9 6 -4 35 4 77 25 50
25 -6 0 -13 -3 -17 -6z"/>
<path d="M1095 1320 c-3 -6 1 -7 9 -4 18 7 21 14 7 14 -6 0 -13 -4 -16 -10z"/>
<path d="M3020 1542 c0 -5 7 -13 16 -16 10 -4 14 -1 12 6 -5 15 -28 23 -28 10z"/>
<path d="M2270 1426 c0 -2 7 -9 15 -16 13 -11 14 -10 9 4 -5 14 -24 23 -24 12z"/>
<path d="M2407 1413 c5 -13 2 -15 -12 -9 -10 3 -21 2 -25 -4 -4 -6 -28 -11
-54 -12 l-47 -1 30 -18 c17 -10 31 -23 31 -29 0 -19 18 -10 23 11 4 13 10 18
18 13 7 -4 18 0 25 11 13 17 14 17 20 1 4 -11 -1 -23 -12 -32 -16 -13 -16 -15
-2 -10 9 2 19 -2 22 -10 3 -8 13 -14 23 -14 16 1 17 1 1 10 -12 7 -15 19 -11
43 9 58 7 67 -17 67 -14 0 -18 -5 -13 -17z"/>
<path d="M2222 1407 c-15 -9 -19 -16 -12 -23 6 -6 12 -25 13 -42 2 -32 28 -45
42 -22 4 6 3 10 -2 9 -20 -3 -25 2 -13 16 7 9 10 18 6 22 -3 3 -6 1 -6 -5 0
-7 -4 -12 -9 -12 -17 0 -7 40 11 46 10 3 16 10 13 15 -8 12 -15 11 -43 -4z"/>
<path d="M1284 1068 c-3 -5 -15 -6 -26 -2 -13 4 -18 2 -14 -4 8 -14 76 -11 76
3 0 14 -28 16 -36 3z"/>
<path d="M2560 1255 c0 -8 6 -15 14 -15 7 0 19 7 26 15 9 10 9 15 1 15 -6 0
-11 -4 -11 -10 0 -5 -5 -10 -11 -10 -5 0 -7 5 -4 10 3 6 1 10 -4 10 -6 0 -11
-7 -11 -15z"/>
<path d="M1585 1250 c-3 -5 -2 -10 4 -10 5 0 13 5 16 10 3 6 2 10 -4 10 -5 0
-13 -4 -16 -10z"/>
<path d="M2597 1233 c-4 -3 -7 -13 -7 -22 1 -13 3 -13 11 2 11 19 8 33 -4 20z"/>
<path d="M2620 1216 c-5 -13 -14 -26 -21 -28 -9 -3 -6 -11 9 -26 l21 -21 -6
29 c-3 20 -1 30 6 30 7 0 9 5 5 11 -3 6 0 15 7 20 11 7 11 9 1 9 -7 0 -17 -11
-22 -24z"/>
<path d="M1574 1201 c1 -18 15 -31 33 -31 21 0 10 38 -13 43 -15 2 -21 -1 -20
-12z"/>
<path d="M2150 1167 c0 -10 7 -25 15 -33 19 -19 19 -14 0 22 -11 21 -15 24
-15 11z"/>
<path d="M1674 1113 c2 -10 6 -17 10 -16 15 3 16 11 2 22 -12 10 -14 9 -12 -6z"/>
<path d="M1815 1120 c-3 -5 -1 -10 4 -10 6 0 11 5 11 10 0 6 -2 10 -4 10 -3 0
-8 -4 -11 -10z"/>
<path d="M1727 1113 c-11 -10 -8 -45 3 -38 6 4 7 11 4 17 -4 6 0 14 7 19 8 5
9 9 3 9 -6 0 -14 -3 -17 -7z"/>
<path d="M2100 1101 c0 -10 7 -22 15 -25 20 -7 32 23 14 35 -21 13 -29 11 -29
-10z"/>
<path d="M2004 1077 c-8 -19 -7 -23 6 -23 12 0 15 7 12 23 -5 28 -5 28 -18 0z"/>
<path d="M2586 1037 c3 -10 9 -15 12 -12 3 3 0 11 -7 18 -10 9 -11 8 -5 -6z"/>
<path d="M1898 1033 c7 -3 16 -2 19 1 4 3 -2 6 -13 5 -11 0 -14 -3 -6 -6z"/>
<path d="M2480 1028 c0 -6 -7 -19 -16 -29 -15 -17 -15 -18 4 -16 12 0 18 6 15
14 -6 17 9 17 26 1 11 -11 12 -10 7 0 -4 7 -2 19 4 27 9 11 9 15 1 15 -6 0
-11 -4 -11 -10 0 -5 -5 -10 -11 -10 -5 0 -7 5 -4 10 3 6 1 10 -4 10 -6 0 -11
-5 -11 -12z"/>
<path d="M1698 963 c6 -2 9 -10 6 -15 -4 -7 -2 -8 5 -4 13 9 5 26 -12 25 -9 0
-8 -2 1 -6z"/>
<path d="M1965 940 c-3 -5 -2 -10 4 -10 5 0 13 5 16 10 3 6 2 10 -4 10 -5 0
-13 -4 -16 -10z"/>
<path d="M1583 703 c-15 -5 -17 -33 -3 -33 6 0 10 6 10 13 0 8 4 7 10 -3 5 -8
10 -10 10 -5 0 18 -15 32 -27 28z"/>
<path d="M1865 690 c3 -5 8 -10 11 -10 2 0 4 5 4 10 0 6 -5 10 -11 10 -5 0 -7
-4 -4 -10z"/>
<path d="M1670 686 c0 -2 7 -7 16 -10 8 -3 12 -2 9 4 -6 10 -25 14 -25 6z"/>
<path d="M1733 670 c2 -11 7 -23 12 -27 4 -5 5 -3 2 3 -4 7 -1 14 7 17 8 3 13
-1 12 -11 -1 -10 6 -16 17 -16 9 1 17 -3 17 -9 0 -5 8 -1 18 10 9 11 22 22 29
24 8 3 7 8 -3 17 -12 11 -14 10 -14 -3 0 -16 -23 -14 -77 6 -19 7 -22 5 -20
-11z"/>
<path d="M1670 656 c0 -2 7 -6 15 -10 8 -3 15 -1 15 4 0 6 -7 10 -15 10 -8 0
-15 -2 -15 -4z"/>
<path d="M1590 545 c0 -8 -5 -23 -11 -34 -9 -13 -9 -22 0 -37 10 -16 12 -16 7
-1 -4 13 0 17 20 17 19 0 25 -4 20 -15 -4 -12 -2 -13 14 -2 11 6 20 15 20 20
0 4 -4 5 -10 2 -5 -3 -10 -1 -10 4 0 6 8 11 18 12 14 0 14 2 -3 9 -26 11 -48
12 -41 2 3 -5 -1 -9 -9 -9 -10 0 -11 6 -4 24 5 14 5 23 -1 23 -6 0 -10 -7 -10
-15z"/>
<path d="M2120 529 c0 -5 5 -7 10 -4 6 3 10 8 10 11 0 2 -4 4 -10 4 -5 0 -10
-5 -10 -11z"/>
<path d="M1910 410 c0 -6 -9 -14 -20 -18 -11 -4 -16 -12 -12 -19 5 -8 14 -4
29 13 12 13 17 26 12 30 -5 3 -9 0 -9 -6z"/>
<path d="M1256 681 c-11 -12 -14 -21 -7 -26 6 -3 11 1 11 10 0 9 4 14 8 11 5
-3 9 1 9 9 0 19 0 19 -21 -4z"/>
<path d="M1446 664 c-3 -8 -2 -12 4 -9 6 3 10 2 10 -4 0 -5 -6 -12 -12 -14 -8
-3 -6 -6 4 -6 13 -1 17 6 16 24 -3 28 -13 33 -22 9z"/>
<path d="M1380 621 c0 -6 5 -13 10 -16 6 -3 10 1 10 9 0 9 -4 16 -10 16 -5 0
-10 -4 -10 -9z"/>
<path d="M1468 540 c12 -5 22 -15 22 -21 0 -7 2 -10 5 -7 12 11 -9 38 -29 37
-21 0 -21 0 2 -9z"/>
<path d="M1437 362 c-18 -19 -14 -32 10 -32 8 0 11 5 8 10 -3 6 -1 10 4 10 6
0 11 -7 11 -15 0 -20 14 -19 31 3 13 16 13 16 -5 2 -18 -14 -19 -13 -14 7 4
13 1 26 -4 30 -7 3 -8 1 -4 -5 4 -7 3 -12 -3 -12 -5 0 -11 5 -13 11 -2 6 -11
2 -21 -9z"/>
<path d="M2655 440 c-8 -13 -1 -24 14 -19 6 3 7 10 2 18 -6 10 -10 10 -16 1z"/>
<path d="M860 580 c-8 -5 -12 -11 -9 -14 2 -3 11 -1 19 4 8 5 12 11 9 14 -2 3
-11 1 -19 -4z"/>
<path d="M2316 345 c-27 -25 -35 -50 -13 -42 6 2 11 10 10 16 -2 6 3 11 10 11
7 0 18 9 25 20 17 27 0 25 -32 -5z"/>
<path d="M1956 215 c-19 -15 -19 -15 1 -15 11 0 23 7 27 15 7 19 -3 19 -28 0z"/>
<path d="M1725 3590 c-4 -6 1 -7 12 -3 16 6 16 5 4 -10 -12 -16 -10 -17 23
-15 24 2 36 8 36 18 0 10 3 11 8 4 11 -17 49 -26 57 -14 4 6 17 15 29 20 15 6
4 9 -41 9 -40 1 -63 -3 -66 -11 -4 -10 -6 -10 -6 0 -1 14 -47 16 -56 2z"/>
<path d="M2865 3590 c3 -5 8 -10 11 -10 2 0 4 5 4 10 0 6 -5 10 -11 10 -5 0
-7 -4 -4 -10z"/>
<path d="M2170 3489 c0 -5 5 -7 10 -4 6 3 10 8 10 11 0 2 -4 4 -10 4 -5 0 -10
-5 -10 -11z"/>
<path d="M2118 3454 c-4 -4 -3 -15 3 -26 8 -15 13 -17 25 -7 8 6 14 18 14 26
0 12 -3 13 -14 4 -10 -9 -15 -9 -18 -1 -2 6 -7 8 -10 4z"/>
<path d="M1297 3436 c-3 -8 0 -17 7 -19 10 -4 12 1 9 14 -6 23 -9 24 -16 5z"/>
<path d="M2378 3443 c-27 -7 -21 -21 7 -19 14 0 25 4 25 8 0 11 -13 15 -32 11z"/>
<path d="M1796 3407 c3 -10 9 -15 12 -12 3 3 0 11 -7 18 -10 9 -11 8 -5 -6z"/>
<path d="M1900 3400 c0 -5 5 -10 11 -10 5 0 7 5 4 10 -3 6 -8 10 -11 10 -2 0
-4 -4 -4 -10z"/>
<path d="M3286 3382 c-3 -6 -1 -14 5 -17 15 -10 25 3 12 16 -7 7 -13 7 -17 1z"/>
<path d="M3276 3305 c-10 -8 -24 -12 -30 -8 -6 3 -5 0 2 -8 10 -11 16 -10 34
9 25 25 22 28 -6 7z"/>
<path d="M3103 3269 c-12 -12 -5 -59 9 -59 5 0 6 5 3 10 -3 6 -1 10 5 10 17 0
23 -29 10 -45 -10 -12 -9 -15 8 -15 29 0 34 24 9 51 -12 13 -22 29 -23 37 -3
20 -9 23 -21 11z"/>
<path d="M3352 3264 c-11 -12 -10 -17 2 -30 15 -14 16 -12 16 15 0 35 0 36
-18 15z"/>
<path d="M3300 3200 c0 -5 5 -10 10 -10 6 0 10 5 10 10 0 6 -4 10 -10 10 -5 0
-10 -4 -10 -10z"/>
<path d="M3210 3165 c-7 -8 -16 -13 -20 -10 -5 3 -11 1 -15 -5 -3 -5 -1 -10 5
-10 7 0 9 -8 5 -20 -5 -16 -3 -19 12 -13 23 8 60 33 50 33 -5 0 -17 -5 -28
-10 -15 -8 -19 -7 -19 5 0 10 10 15 34 15 38 0 55 14 30 24 -25 10 -41 7 -54
-9z"/>
<path d="M3510 2876 c0 -2 11 -11 25 -20 23 -15 24 -15 18 1 -4 11 -3 14 5 9
7 -4 12 -2 12 3 0 6 -13 11 -30 11 -16 0 -30 -2 -30 -4z"/>
<path d="M3583 2855 c0 -14 3 -28 8 -31 5 -3 9 9 9 25 0 17 -4 31 -9 31 -5 0
-8 -11 -8 -25z"/>
<path d="M3570 2681 c0 -5 7 -11 14 -14 10 -4 13 -1 9 9 -6 15 -23 19 -23 5z"/>
<path d="M0 1080 c0 -5 5 -10 11 -10 5 0 7 5 4 10 -3 6 -8 10 -11 10 -2 0 -4
-4 -4 -10z"/>
<path d="M24 1058 c-4 -7 -4 -10 1 -6 4 4 16 3 26 -3 15 -7 17 -6 13 6 -7 18
-30 20 -40 3z"/>
<path d="M0 622 c0 -18 4 -32 8 -32 10 0 10 46 0 56 -5 4 -8 -7 -8 -24z"/>
<path d="M74 559 c-5 -8 -3 -9 6 -4 7 4 16 2 22 -6 8 -12 9 -12 6 0 -6 20 -24
25 -34 10z"/>
<path d="M62 498 c-15 -15 -16 -38 -1 -38 6 0 9 -6 6 -14 -4 -10 0 -12 15 -8
14 3 18 11 15 24 -5 18 -4 19 12 4 20 -18 31 -20 31 -6 0 6 -7 10 -16 10 -11
0 -14 6 -9 23 3 12 3 18 -2 12 -4 -5 -18 -16 -31 -23 -22 -12 -23 -12 -12 8
12 23 10 26 -8 8z"/>
<path d="M24 465 c1 -33 16 -33 16 0 0 14 -4 25 -9 25 -5 0 -8 -11 -7 -25z"/>
<path d="M172 461 c-11 -6 -10 -10 0 -19 11 -8 14 -7 14 9 0 10 0 19 -1 19 0
0 -6 -4 -13 -9z"/>
<path d="M1540 60 c0 -5 5 -10 11 -10 5 0 7 5 4 10 -3 6 -8 10 -11 10 -2 0 -4
-4 -4 -10z"/>
</g>
</svg>
